<svg xmlns="http://www.w3.org/2000/svg" width="181.11" height="28.47" viewBox="0 0 181.11 28.47"><path d="M-182.61,1.53a2.475,2.475,0,0,0,2.55,2.55,2.771,2.771,0,0,0,1.8-.6,16.06,16.06,0,0,0,5.1-7.62,16.126,16.126,0,0,0,5.1,7.47,2.771,2.771,0,0,0,1.8.6,2.475,2.475,0,0,0,2.55-2.55,2.649,2.649,0,0,0-.93-2.07c-3.96-3.27-5.82-7.77-5.82-15.63v-3.87a2.689,2.689,0,0,0-2.7-2.7,2.689,2.689,0,0,0-2.7,2.7v3.87c0,7.86-1.89,12.48-5.85,15.75A2.691,2.691,0,0,0-182.61,1.53Zm21.84,1.05a2.652,2.652,0,0,0,2.7,2.7,2.652,2.652,0,0,0,2.7-2.7V-20.49a2.67,2.67,0,0,0-2.7-2.7,2.67,2.67,0,0,0-2.7,2.7v7.11h-4.2a2.356,2.356,0,0,0-2.37,2.37,2.356,2.356,0,0,0,2.37,2.37h4.2Zm23.04-11.04a2.074,2.074,0,0,0,2.07-2.07v-.09h4.89v1.2a2.652,2.652,0,0,0,2.7,2.7,2.652,2.652,0,0,0,2.7-2.7V-20.49a2.67,2.67,0,0,0-2.7-2.7,2.67,2.67,0,0,0-2.7,2.7v.27h-4.89v-.15a2.074,2.074,0,0,0-2.07-2.07h-11.91a2.074,2.074,0,0,0-2.07,2.07v9.84a2.074,2.074,0,0,0,2.07,2.07Zm-7.29,13.44h14.19a5.654,5.654,0,0,0,5.76-5.61,5.66,5.66,0,0,0-5.76-5.64h-14.19a5.653,5.653,0,0,0-5.73,5.64A5.647,5.647,0,0,0-145.02,4.98Zm-.39-5.61a1.538,1.538,0,0,1,1.59-1.56h11.79a1.563,1.563,0,0,1,1.62,1.56A1.539,1.539,0,0,1-132.03.9h-11.79A1.514,1.514,0,0,1-145.41-.63Zm-1.02-17.73h5.49v5.82h-5.49Zm10.77,2.07h4.89v1.74h-4.89ZM-98.73,3.78a2.074,2.074,0,0,0,2.07-2.07V-19.92a2.074,2.074,0,0,0-2.07-2.07h-11.91a2.074,2.074,0,0,0-2.07,2.07V1.71a2.074,2.074,0,0,0,2.07,2.07Zm5.82-1.2a2.652,2.652,0,0,0,2.7,2.7,2.652,2.652,0,0,0,2.7-2.7V-7.71h1.47a2.247,2.247,0,0,0,2.25-2.25,2.247,2.247,0,0,0-2.25-2.25h-1.47v-8.28a2.67,2.67,0,0,0-2.7-2.7,2.67,2.67,0,0,0-2.7,2.7Zm-14.52-20.19h5.49V-.6h-5.49ZM-59.58,4.98a2.074,2.074,0,0,0,2.07-2.07V-4.14a2.074,2.074,0,0,0-2.07-2.07h-19.8a2.074,2.074,0,0,0-2.07,2.07V2.91a2.074,2.074,0,0,0,2.07,2.07ZM-71.7-18.3c0,3.27-2.91,5.82-9.69,6.33a2.164,2.164,0,0,0-1.95,2.28,2.25,2.25,0,0,0,2.49,2.13c11.4-.54,14.49-6.51,14.49-11.34v-1.47a2.074,2.074,0,0,0-2.07-2.07H-80.79a2.074,2.074,0,0,0-2.07,2.07,2.074,2.074,0,0,0,2.07,2.07Zm8.79,8.64a2.652,2.652,0,0,0,2.7,2.7,2.652,2.652,0,0,0,2.7-2.7v-3.48h1.62a2.087,2.087,0,0,0,2.1-2.1,2.087,2.087,0,0,0-2.1-2.1h-1.62v-3.15a2.67,2.67,0,0,0-2.7-2.7,2.67,2.67,0,0,0-2.7,2.7Zm-13.2,7.53h13.26V.9H-76.11Zm41.76,5.31c7.77,0,11.85-5.28,11.85-12.57S-26.58-21.9-34.32-21.9h-6.09a2.834,2.834,0,0,0-3,3V.18a2.834,2.834,0,0,0,3,3Zm-.42-20.34c5.04,0,6.93,3.03,6.93,7.77s-1.92,7.83-6.93,7.83h-3.3v-15.6ZM-3.66-7.44A2.331,2.331,0,0,0-1.5-9.87a2.257,2.257,0,0,0-2.16-2.37H-17.34A2.276,2.276,0,0,0-19.5-9.87a2.312,2.312,0,0,0,2.16,2.43Z" transform="translate(182.61 23.19)" fill="#fff"/></svg>