<svg xmlns="http://www.w3.org/2000/svg" width="289" height="82" viewBox="0 0 289 82"><g transform="translate(-720.5 -866.011)"><rect width="289" height="82" rx="41" transform="translate(720.5 866.011)" fill="#fff"/><path d="M7.924,4.648H21.168c2.968,0,5.376-2.016,5.376-4.956a5.057,5.057,0,0,0-5.376-4.984H7.924A5.049,5.049,0,0,0,2.576-.308,5.043,5.043,0,0,0,7.924,4.648ZM1.4-8.4A2.133,2.133,0,0,0,3.64-6.216,2.928,2.928,0,0,0,4.732-6.44,10,10,0,0,0,9.8-10.752,9.864,9.864,0,0,0,14.812-6.58a2.928,2.928,0,0,0,1.092.224,2.133,2.133,0,0,0,2.24-2.184A2.081,2.081,0,0,0,16.8-10.612a6.837,6.837,0,0,1-4.368-4.872h3.612a1.875,1.875,0,0,0,2.016-1.932A1.889,1.889,0,0,0,16.044-19.4H12.292v-.56a2.271,2.271,0,0,0-2.52-2.24,2.271,2.271,0,0,0-2.52,2.24v.56H3.5a1.9,1.9,0,0,0-1.96,1.988A1.891,1.891,0,0,0,3.5-15.484H7.112a6.894,6.894,0,0,1-4.368,5.012A2.081,2.081,0,0,0,1.4-8.4Zm19.824.14a2.475,2.475,0,0,0,2.52,2.52,2.475,2.475,0,0,0,2.52-2.52V-19.124a2.492,2.492,0,0,0-2.52-2.52,2.492,2.492,0,0,0-2.52,2.52v4.116H18.2a1.948,1.948,0,0,0-1.96,1.96,1.948,1.948,0,0,0,1.96,1.96h3.024ZM7.56-.308c0-.756.56-1.176,1.4-1.176H20.132c.84,0,1.428.42,1.428,1.176S20.972.84,20.132.84H8.96C8.12.84,7.56.448,7.56-.308ZM30.1-16.492a4.445,4.445,0,0,0,4.452,4.452h8.064a4.445,4.445,0,0,0,4.452-4.452,4.445,4.445,0,0,0-4.452-4.452H34.552A4.445,4.445,0,0,0,30.1-16.492ZM43.26-4.228A1.92,1.92,0,0,0,45.192-2.38h4.032a2.249,2.249,0,0,0,2.52,2.128,2.256,2.256,0,0,0,2.52-2.24V-19.124a2.492,2.492,0,0,0-2.52-2.52,2.492,2.492,0,0,0-2.52,2.52V-6.132H45.192A1.93,1.93,0,0,0,43.26-4.228Zm-12.4,6.5a2.341,2.341,0,0,0,2.38,2.38H52.864a1.96,1.96,0,0,0,0-3.92H35.9V-1.456a2.287,2.287,0,0,0-2.52-2.24,2.287,2.287,0,0,0-2.52,2.24Zm5.04-6.02A2.143,2.143,0,0,0,38.248-1.6a2.493,2.493,0,0,0,2.436-1.512A14.3,14.3,0,0,0,41.384-7h5.152a1.966,1.966,0,0,0,1.988-1.932,1.978,1.978,0,0,0-1.988-1.988H31.08a1.99,1.99,0,0,0-1.96,1.988A1.979,1.979,0,0,0,31.08-7h5.292a14.25,14.25,0,0,1-.336,2.268A4.136,4.136,0,0,0,35.9-3.752Zm-.924-12.74a.789.789,0,0,1,.784-.812h5.656a.789.789,0,0,1,.784.812.789.789,0,0,1-.784.812H35.756A.789.789,0,0,1,34.972-16.492ZM65.24,1.428a2.31,2.31,0,0,0,2.38,2.38,2.586,2.586,0,0,0,1.68-.56,14.989,14.989,0,0,0,4.76-7.112,15.051,15.051,0,0,0,4.76,6.972,2.586,2.586,0,0,0,1.68.56,2.31,2.31,0,0,0,2.38-2.38,2.472,2.472,0,0,0-.868-1.932C78.316-3.7,76.58-7.9,76.58-15.232v-3.612a2.51,2.51,0,0,0-2.52-2.52,2.51,2.51,0,0,0-2.52,2.52v3.612c0,7.336-1.764,11.648-5.46,14.7A2.511,2.511,0,0,0,65.24,1.428Zm20.384.98a2.52,2.52,0,0,0,5.04,0V-19.124a2.492,2.492,0,0,0-2.52-2.52,2.492,2.492,0,0,0-2.52,2.52v6.636H81.7a2.2,2.2,0,0,0-2.212,2.212A2.2,2.2,0,0,0,81.7-8.064h3.92Zm21.5-10.3a1.936,1.936,0,0,0,1.932-1.932v-.084h4.564v1.12a2.475,2.475,0,0,0,2.52,2.52,2.475,2.475,0,0,0,2.52-2.52V-19.124a2.492,2.492,0,0,0-2.52-2.52,2.492,2.492,0,0,0-2.52,2.52v.252H109.06v-.14a1.936,1.936,0,0,0-1.932-1.932H96.012a1.936,1.936,0,0,0-1.932,1.932v9.184A1.936,1.936,0,0,0,96.012-7.9Zm-6.8,12.544h13.244a5.277,5.277,0,0,0,5.376-5.236,5.283,5.283,0,0,0-5.376-5.264H100.324A5.276,5.276,0,0,0,94.976-.588,5.271,5.271,0,0,0,100.324,4.648ZM99.96-.588a1.436,1.436,0,0,1,1.484-1.456h11A1.459,1.459,0,0,1,113.96-.588,1.437,1.437,0,0,1,112.448.84h-11A1.413,1.413,0,0,1,99.96-.588Zm-.952-16.548h5.124V-11.7H99.008ZM109.06-15.2h4.564v1.624H109.06ZM122.22-2.6c0,4.144,3.472,6.552,7.616,6.552S137.48,1.54,137.48-2.6v-4.06c0-4.144-3.5-6.58-7.644-6.58s-7.616,2.436-7.616,6.58Zm18.34,5.012a2.52,2.52,0,0,0,5.04,0V-7.2h1.372a2.1,2.1,0,0,0,2.1-2.1,2.1,2.1,0,0,0-2.1-2.1H145.6v-7.728a2.492,2.492,0,0,0-2.52-2.52,2.492,2.492,0,0,0-2.52,2.52ZM121.52-16.6a2.023,2.023,0,0,0,2.072,2.1H136.08a2.08,2.08,0,0,0,2.1-2.1,2.08,2.08,0,0,0-2.1-2.1h-3.724v-.84a2.378,2.378,0,0,0-2.52-2.38,2.378,2.378,0,0,0-2.52,2.38v.84h-3.724A2.039,2.039,0,0,0,121.52-16.6Zm5.684,10a2.489,2.489,0,0,1,2.66-2.492A2.465,2.465,0,0,1,132.5-6.608V-2.66A2.443,2.443,0,0,1,129.864-.2,2.467,2.467,0,0,1,127.2-2.66Zm42.14,9.016a2.52,2.52,0,1,0,5.04,0V-19.124a2.492,2.492,0,0,0-2.52-2.52,2.492,2.492,0,0,0-2.52,2.52ZM149.52,1.2a2.289,2.289,0,0,0,2.268,2.324,3.031,3.031,0,0,0,1.232-.252c10.164-4.7,12.88-12.88,12.88-20.3v-1.54a1.948,1.948,0,0,0-1.96-1.96H152.012A2.08,2.08,0,0,0,149.94-18.4a2.067,2.067,0,0,0,2.072,2.072h8.848c0,6.552-3.052,11.928-10.052,15.4A2.357,2.357,0,0,0,149.52,1.2Z" transform="translate(750.104 906.371)"/><path d="M2.868,1.716a12.572,12.572,0,0,1-1.3-2.832A10.835,10.835,0,0,1,1.1-4.38a10.792,10.792,0,0,1,.468-3.252,12.572,12.572,0,0,1,1.3-2.832l.684.312A9.962,9.962,0,0,0,2.388-7.386,12.205,12.205,0,0,0,2.016-4.38a12.277,12.277,0,0,0,.372,3.012,9.777,9.777,0,0,0,1.164,2.76Zm3.18-4.3q.54,0,1.008-.018t.906-.054q.438-.036.858-.1T9.684-2.9l.084.816q-.48.108-.936.168t-.936.1q-.48.036-1,.048t-1.116.012H5.076v-6.8H9.084v.8H6.048Zm7.788-7.3V.888h-.948v-5.64H11.364v5.1H10.44V-9.636h.924v4.08h1.524v-4.32Zm8.28,2.112H15.768v-.792h2.676V-9.864h.984v1.308h2.688ZM17.3-5.172a1.067,1.067,0,0,0,.444.906,1.946,1.946,0,0,0,1.188.33,1.979,1.979,0,0,0,1.188-.33,1.058,1.058,0,0,0,.456-.906,1.047,1.047,0,0,0-.456-.894,1.979,1.979,0,0,0-1.188-.33,1.946,1.946,0,0,0-1.188.33A1.056,1.056,0,0,0,17.3-5.172Zm4.212,0a1.825,1.825,0,0,1-.186.828,1.776,1.776,0,0,1-.528.63,2.593,2.593,0,0,1-.816.4,3.6,3.6,0,0,1-1.05.144,3.542,3.542,0,0,1-1.044-.144,2.6,2.6,0,0,1-.81-.4,1.776,1.776,0,0,1-.528-.63,1.825,1.825,0,0,1-.186-.828,1.8,1.8,0,0,1,.186-.816,1.776,1.776,0,0,1,.528-.63,2.6,2.6,0,0,1,.81-.4,3.542,3.542,0,0,1,1.044-.144,3.6,3.6,0,0,1,1.05.144,2.593,2.593,0,0,1,.816.4,1.776,1.776,0,0,1,.528.63A1.8,1.8,0,0,1,21.516-5.172ZM18.372-.156h6.192v.8H17.388V-2.436h.984ZM25.68-6.324V-5.5h-1.6v3.7H23.1V-9.864h.984v3.54ZM35.6-2.136H34.62V-9.864H35.6ZM31.4-8.148H28.3v3.42H31.4Zm.96,4.212H27.336v-5h5.028ZM35.928-.264V.528H28.68v-3.4h.984v2.6Zm7.248-4.452v1.968h3.2V.876H45.4V-1.956H38.844v-.792h3.348V-4.716h-4.38v-.8H45.06a10.335,10.335,0,0,0,.252-1.7q.036-.732.036-1.344H39.06V-9.36h7.26v.78q0,.612-.03,1.356a10.313,10.313,0,0,1-.234,1.7H47.58v.8Zm11.04,0v1.968h3.2V.876h-.984V-1.956H49.884v-.792h3.348V-4.716h-4.38v-.8H56.1a10.335,10.335,0,0,0,.252-1.7q.036-.732.036-1.344H50.1V-9.36h7.26v.78q0,.612-.03,1.356a10.313,10.313,0,0,1-.234,1.7H58.62v.8Zm12.5-3.048H60.18v-.792h2.784V-9.864h.984v1.308H66.72ZM61.8-5.16a1.047,1.047,0,0,0,.456.894,2,2,0,0,0,1.2.33,1.979,1.979,0,0,0,1.188-.33A1.047,1.047,0,0,0,65.1-5.16a1.058,1.058,0,0,0-.456-.906,1.979,1.979,0,0,0-1.188-.33,2,2,0,0,0-1.2.33A1.058,1.058,0,0,0,61.8-5.16Zm2.148,3.1q.768-.036,1.536-.1T67-2.316l.072.732q-.9.144-1.824.234t-1.818.132q-.894.042-1.74.054t-1.59.012l-.144-.828q.684,0,1.446-.012t1.566-.036V-3.18a2.7,2.7,0,0,1-1.53-.642,1.733,1.733,0,0,1-.57-1.338,1.788,1.788,0,0,1,.186-.822,1.848,1.848,0,0,1,.528-.63,2.427,2.427,0,0,1,.822-.4,3.813,3.813,0,0,1,1.056-.138,3.749,3.749,0,0,1,1.05.138,2.433,2.433,0,0,1,.816.4,1.848,1.848,0,0,1,.528.63,1.788,1.788,0,0,1,.186.822,1.728,1.728,0,0,1-.564,1.326,2.664,2.664,0,0,1-1.524.642Zm4.716-7.8V.888H67.68V-9.864Zm10.32,5.148v1.968h3.2V.876H81.2V-1.956H74.652v-.792H78V-4.716H73.62v-.8h7.248a10.336,10.336,0,0,0,.252-1.7q.036-.732.036-1.344H74.868V-9.36h7.26v.78q0,.612-.03,1.356a10.312,10.312,0,0,1-.234,1.7h1.524v.8Zm14.508,2.58h-.984V-9.864h.984Zm-4.2-6.012H86.184v3.42h3.108Zm.96,4.212H85.224v-5h5.028ZM93.816-.264V.528H86.568v-3.4h.984v2.6Zm6.756.384a5.176,5.176,0,0,0,1.974-.3.958.958,0,0,0,.7-.876.958.958,0,0,0-.7-.876,5.176,5.176,0,0,0-1.974-.3,5.265,5.265,0,0,0-1.992.3.959.959,0,0,0-.708.876.959.959,0,0,0,.708.876A5.265,5.265,0,0,0,100.572.12Zm0-3.12a8.52,8.52,0,0,1,1.536.126,4.018,4.018,0,0,1,1.158.378,2.021,2.021,0,0,1,.726.612,1.408,1.408,0,0,1,.252.828,1.408,1.408,0,0,1-.252.828,2.021,2.021,0,0,1-.726.612,4.018,4.018,0,0,1-1.158.378,8.52,8.52,0,0,1-1.536.126,6.025,6.025,0,0,1-2.712-.5,1.568,1.568,0,0,1-.984-1.44A1.568,1.568,0,0,1,97.86-2.5,6.025,6.025,0,0,1,100.572-3Zm4.872-1.56v.792H95.7V-4.56h4.38V-5.808H96.924V-9.384h7.308v.792H97.908V-6.6h6.4v.792h-3.24V-4.56Zm4.788-4.524a3.5,3.5,0,0,1,1.158.186,2.739,2.739,0,0,1,.912.516,2.357,2.357,0,0,1,.594.8,2.433,2.433,0,0,1,.216,1.032A2.433,2.433,0,0,1,112.9-5.52a2.357,2.357,0,0,1-.594.8,2.739,2.739,0,0,1-.912.516,3.5,3.5,0,0,1-1.158.186,3.445,3.445,0,0,1-1.152-.186,2.82,2.82,0,0,1-.912-.516,2.322,2.322,0,0,1-.6-.8,2.433,2.433,0,0,1-.216-1.032,2.433,2.433,0,0,1,.216-1.032,2.322,2.322,0,0,1,.6-.8,2.82,2.82,0,0,1,.912-.516A3.445,3.445,0,0,1,110.232-9.084Zm0,.84a2.4,2.4,0,0,0-.774.12,1.707,1.707,0,0,0-.606.348,1.656,1.656,0,0,0-.4.54,1.612,1.612,0,0,0-.144.684,1.612,1.612,0,0,0,.144.684,1.592,1.592,0,0,0,.4.534,1.837,1.837,0,0,0,.606.348,2.293,2.293,0,0,0,.774.126,2.293,2.293,0,0,0,.774-.126,1.837,1.837,0,0,0,.606-.348,1.592,1.592,0,0,0,.4-.534,1.612,1.612,0,0,0,.144-.684,1.612,1.612,0,0,0-.144-.684,1.656,1.656,0,0,0-.4-.54,1.707,1.707,0,0,0-.606-.348A2.4,2.4,0,0,0,110.232-8.244Zm5.28-1.632V.912h-.984V-9.876Zm-8.7,7.6q.732,0,1.59-.006t1.764-.042q.906-.036,1.836-.114t1.818-.21l.084.732q-.912.168-1.842.264t-1.824.144q-.894.048-1.734.054t-1.572.006Zm18.84-4.536v-3.06h1v6.528h-1V-6H123.5v-.816ZM123.7-3.8a4.756,4.756,0,0,1-1.638-.864,3.9,3.9,0,0,1-1.074-1.368,4.187,4.187,0,0,1-1.044,1.542,4.342,4.342,0,0,1-1.656.966l-.48-.756a4.548,4.548,0,0,0,1.08-.54,4,4,0,0,0,.846-.768,3.329,3.329,0,0,0,.546-.942,2.957,2.957,0,0,0,.192-1.05v-.2H118.08V-8.58h2.388V-9.924h.984V-8.58h2.376v.792h-2.376v.2a2.47,2.47,0,0,0,.2.972,3.041,3.041,0,0,0,.558.864,3.99,3.99,0,0,0,.852.7,4.51,4.51,0,0,0,1.092.486ZM123.084.108A4.71,4.71,0,0,0,125.01-.21a.987.987,0,0,0,.69-.894.981.981,0,0,0-.69-.882,4.71,4.71,0,0,0-1.926-.318,4.629,4.629,0,0,0-1.908.318.98.98,0,0,0-.684.882.986.986,0,0,0,.684.894A4.629,4.629,0,0,0,123.084.108Zm0-3.18a7.786,7.786,0,0,1,1.506.132,4.052,4.052,0,0,1,1.134.384,1.95,1.95,0,0,1,.714.618,1.46,1.46,0,0,1,.246.834,1.489,1.489,0,0,1-.246.84,1.927,1.927,0,0,1-.714.624,4.052,4.052,0,0,1-1.134.384,7.786,7.786,0,0,1-1.506.132A7.623,7.623,0,0,1,121.6.744,4.053,4.053,0,0,1,120.468.36a1.927,1.927,0,0,1-.714-.624,1.489,1.489,0,0,1-.246-.84,1.46,1.46,0,0,1,.246-.834,1.951,1.951,0,0,1,.714-.618A4.053,4.053,0,0,1,121.6-2.94,7.623,7.623,0,0,1,123.084-3.072Zm13.56-.444v-6.36h.984v8.2h-.984v-1.1H134.46v-.732Zm-4.38-5.2a2.224,2.224,0,0,0-1.242.312.951.951,0,0,0-.474.828.961.961,0,0,0,.474.84,2.224,2.224,0,0,0,1.242.312,2.224,2.224,0,0,0,1.242-.312.961.961,0,0,0,.474-.84.951.951,0,0,0-.474-.828A2.224,2.224,0,0,0,132.264-8.712Zm0,3.024a4.093,4.093,0,0,1-1.074-.132,2.7,2.7,0,0,1-.84-.378,1.751,1.751,0,0,1-.546-.594,1.587,1.587,0,0,1-.192-.78,1.563,1.563,0,0,1,.192-.768,1.751,1.751,0,0,1,.546-.594,2.7,2.7,0,0,1,.84-.378,4.093,4.093,0,0,1,1.074-.132,4.093,4.093,0,0,1,1.074.132,2.7,2.7,0,0,1,.84.378,1.751,1.751,0,0,1,.546.594,1.563,1.563,0,0,1,.192.768,1.587,1.587,0,0,1-.192.78,1.751,1.751,0,0,1-.546.594,2.7,2.7,0,0,1-.84.378A4.093,4.093,0,0,1,132.264-5.688ZM131.88-4.14q-.8.036-1.56.048t-1.428.012L128.76-4.9q.744,0,1.6-.006t1.758-.042q.9-.036,1.812-.1t1.764-.168l.084.708q-.72.108-1.452.186t-1.464.126v2.124h-.984ZM137.9-.156v.8H130.3V-2.484h.984V-.156Zm10.824-4.392V-9.684h.924V-3.24h-.924v-.6h-1.884v-.708Zm-3.348-4.26a1.991,1.991,0,0,0-1.05.24.741.741,0,0,0-.39.66.741.741,0,0,0,.39.66,1.991,1.991,0,0,0,1.05.24,2.024,2.024,0,0,0,1.056-.24.739.739,0,0,0,.4-.66.739.739,0,0,0-.4-.66A2.024,2.024,0,0,0,145.38-8.808Zm0,2.508a3.692,3.692,0,0,1-.954-.114,2.454,2.454,0,0,1-.732-.318,1.46,1.46,0,0,1-.474-.5,1.351,1.351,0,0,1-.168-.672,1.318,1.318,0,0,1,.168-.666,1.478,1.478,0,0,1,.474-.5,2.454,2.454,0,0,1,.732-.318,3.692,3.692,0,0,1,.954-.114,3.025,3.025,0,0,1,1.7.426,1.333,1.333,0,0,1,.642,1.17,1.344,1.344,0,0,1-.642,1.182A3.025,3.025,0,0,1,145.38-6.3Zm-.444,1.32q-.648.036-1.242.042t-1.1.006l-.12-.768q.552,0,1.26-.006t1.464-.042q.756-.036,1.518-.1t1.434-.168l.072.684q-.552.108-1.146.18t-1.206.12V-3.24h-.936Zm5.712,3.924h-5.3v1.02h5.3Zm0-1.764h.96V.744h-7.236V-2.82h.972v1.008h5.3Zm.96-7.044v6.648h-.936V-9.864Zm3.864,7.248q.336-.012.666-.018t.678-.03V-7.716h-1.344Zm2.244-.108q.288-.024.576-.054t.552-.066l.06.72q-.624.12-1.338.192t-1.428.108q-.714.036-1.374.048t-1.188.012l-.1-.816h.51q.27,0,.582-.012V-7.716h-.888v-.792h4.92v.792h-.888Zm2.04-6.888h.924V.324h-.924V-4.908h-1.464v-.864h1.464Zm3.024-.252V.888h-.948V-9.864Zm10.656-.012V.912h-.984V-9.876Zm-5.676.828a2.343,2.343,0,0,1,1.1.264,2.506,2.506,0,0,1,.864.756,3.815,3.815,0,0,1,.564,1.182,5.477,5.477,0,0,1,.2,1.554,5.477,5.477,0,0,1-.2,1.554,3.815,3.815,0,0,1-.564,1.182,2.506,2.506,0,0,1-.864.756,2.343,2.343,0,0,1-1.1.264,2.343,2.343,0,0,1-1.1-.264,2.506,2.506,0,0,1-.864-.756,3.815,3.815,0,0,1-.564-1.182,5.477,5.477,0,0,1-.2-1.554,5.477,5.477,0,0,1,.2-1.554,3.815,3.815,0,0,1,.564-1.182,2.506,2.506,0,0,1,.864-.756A2.343,2.343,0,0,1,167.76-9.048Zm0,.888a1.354,1.354,0,0,0-.726.2,1.823,1.823,0,0,0-.57.576,2.982,2.982,0,0,0-.372.906,4.927,4.927,0,0,0-.132,1.182,4.908,4.908,0,0,0,.132,1.188,3.069,3.069,0,0,0,.372.906,1.8,1.8,0,0,0,.57.582,1.354,1.354,0,0,0,.726.2,1.324,1.324,0,0,0,.72-.2,1.83,1.83,0,0,0,.564-.582,3.069,3.069,0,0,0,.372-.906,4.908,4.908,0,0,0,.132-1.188,4.927,4.927,0,0,0-.132-1.182,2.982,2.982,0,0,0-.372-.906,1.85,1.85,0,0,0-.564-.576A1.324,1.324,0,0,0,167.76-8.16Zm11.748,1.572a4.2,4.2,0,0,0,.228,1.356,5.3,5.3,0,0,0,.618,1.254,5.258,5.258,0,0,0,.912,1.038,4.135,4.135,0,0,0,1.122.708l-.552.792a4.46,4.46,0,0,1-.894-.552,5.878,5.878,0,0,1-.792-.756,5.724,5.724,0,0,1-.654-.924,6.286,6.286,0,0,1-.48-1.056,6.326,6.326,0,0,1-.468,1.128,6.936,6.936,0,0,1-.648,1,5.922,5.922,0,0,1-.78.828,4.181,4.181,0,0,1-.876.594l-.576-.792a4.339,4.339,0,0,0,1.1-.768,5.614,5.614,0,0,0,.912-1.116,5.937,5.937,0,0,0,.618-1.332,4.561,4.561,0,0,0,.228-1.4V-7.956h-2.5v-.816h6.012v.816h-2.532Zm4.968-3.276V.888h-.984V-9.864ZM186.588,1.32a10.122,10.122,0,0,0,1.158-2.76,12.093,12.093,0,0,0,.378-3.012,12.022,12.022,0,0,0-.378-3.006,10.319,10.319,0,0,0-1.158-2.766l.672-.312A12.271,12.271,0,0,1,188.568-7.7a10.792,10.792,0,0,1,.468,3.252,10.835,10.835,0,0,1-.468,3.264,12.271,12.271,0,0,1-1.308,2.832Z" transform="translate(750.104 928.884)"/><path d="M1.638-3.212a1.775,1.775,0,0,1-.525-1.281,1.775,1.775,0,0,1,.525-1.281l10.2-10.351H5.375A1.783,1.783,0,0,1,3.59-17.91a1.788,1.788,0,0,1,1.785-1.806l6.467-.021L1.638-30.087a1.864,1.864,0,0,1-.525-1.281,1.864,1.864,0,0,1,.525-1.281,1.727,1.727,0,0,1,1.26-.525,1.693,1.693,0,0,1,1.26.525L17.406-19.211a1.775,1.775,0,0,1,.525,1.281,1.775,1.775,0,0,1-.525,1.281L4.157-3.212a1.693,1.693,0,0,1-1.26.525A1.727,1.727,0,0,1,1.638-3.212ZM-16.125-16.125A1.783,1.783,0,0,1-17.91-17.91a1.788,1.788,0,0,1,1.785-1.806l4.346-.021a1.8,1.8,0,0,1,1.785,1.806,1.815,1.815,0,0,1-1.785,1.806Zm10.75,0A1.783,1.783,0,0,1-7.16-17.91a1.788,1.788,0,0,1,1.785-1.806l4.346-.021A1.8,1.8,0,0,1,.756-17.931a1.815,1.815,0,0,1-1.785,1.806Z" transform="translate(967.532 924.371)"/></g></svg>