<svg xmlns="http://www.w3.org/2000/svg" width="480" height="136" viewBox="0 0 480 136"><g transform="translate(-378 -809)"><rect width="480" height="136" rx="68" transform="translate(378 809)" fill="#fff"/><path d="M13.867,8.134H37.044c5.194,0,9.408-3.528,9.408-8.673,0-5.194-4.214-8.722-9.408-8.722H13.867c-5.145,0-9.359,3.528-9.359,8.722C4.508,4.606,8.722,8.134,13.867,8.134ZM2.45-14.7a3.733,3.733,0,0,0,3.92,3.822,5.124,5.124,0,0,0,1.911-.392,17.5,17.5,0,0,0,8.869-7.546,17.261,17.261,0,0,0,8.771,7.3,5.124,5.124,0,0,0,1.911.392,3.733,3.733,0,0,0,3.92-3.822A3.642,3.642,0,0,0,29.4-18.571,11.965,11.965,0,0,1,21.756-27.1h6.321A3.281,3.281,0,0,0,31.6-30.478a3.305,3.305,0,0,0-3.528-3.479H21.511v-.98c0-2.5-1.96-3.92-4.41-3.92s-4.41,1.421-4.41,3.92v.98H6.125a3.333,3.333,0,0,0-3.43,3.479A3.309,3.309,0,0,0,6.125-27.1h6.321A12.064,12.064,0,0,1,4.8-18.326,3.642,3.642,0,0,0,2.45-14.7Zm34.692.245a4.331,4.331,0,0,0,4.41,4.41,4.331,4.331,0,0,0,4.41-4.41V-33.467a4.361,4.361,0,0,0-4.41-4.41,4.361,4.361,0,0,0-4.41,4.41v7.2H31.85a3.409,3.409,0,0,0-3.43,3.43,3.409,3.409,0,0,0,3.43,3.43h5.292ZM13.23-.539c0-1.323.98-2.058,2.45-2.058H35.231c1.47,0,2.5.735,2.5,2.058S36.7,1.47,35.231,1.47H15.68C14.21,1.47,13.23.784,13.23-.539ZM52.675-28.861a7.779,7.779,0,0,0,7.791,7.791H74.578a7.779,7.779,0,0,0,7.791-7.791,7.779,7.779,0,0,0-7.791-7.791H60.466A7.779,7.779,0,0,0,52.675-28.861ZM75.705-7.4a3.36,3.36,0,0,0,3.381,3.234h7.056c.1,2.45,2.009,3.724,4.41,3.724,2.45,0,4.41-1.372,4.41-3.92V-33.467a4.361,4.361,0,0,0-4.41-4.41,4.361,4.361,0,0,0-4.41,4.41v22.736H79.086A3.377,3.377,0,0,0,75.705-7.4ZM54,3.969a4.1,4.1,0,0,0,4.165,4.165H92.512a3.43,3.43,0,1,0,0-6.86H62.818V-2.548c0-2.45-1.96-3.92-4.41-3.92S54-5,54-2.548Zm8.82-10.535c0,2.352,1.764,3.773,4.116,3.773A4.363,4.363,0,0,0,71.2-5.439a25.015,25.015,0,0,0,1.225-6.811h9.016a3.441,3.441,0,0,0,3.479-3.381,3.461,3.461,0,0,0-3.479-3.479H54.39a3.483,3.483,0,0,0-3.43,3.479,3.463,3.463,0,0,0,3.43,3.381h9.261a24.938,24.938,0,0,1-.588,3.969A7.238,7.238,0,0,0,62.818-6.566ZM61.2-28.861a1.381,1.381,0,0,1,1.372-1.421h9.9a1.381,1.381,0,0,1,1.372,1.421,1.381,1.381,0,0,1-1.372,1.421h-9.9A1.381,1.381,0,0,1,61.2-28.861ZM114.17,2.5a4.042,4.042,0,0,0,4.165,4.165,4.525,4.525,0,0,0,2.94-.98A26.231,26.231,0,0,0,129.6-6.762a26.338,26.338,0,0,0,8.33,12.2,4.525,4.525,0,0,0,2.94.98,4.042,4.042,0,0,0,4.165-4.165,4.327,4.327,0,0,0-1.519-3.381c-6.468-5.341-9.506-12.691-9.506-25.529v-6.321a4.392,4.392,0,0,0-4.41-4.41,4.392,4.392,0,0,0-4.41,4.41v6.321c0,12.838-3.087,20.384-9.555,25.725A4.395,4.395,0,0,0,114.17,2.5Zm35.672,1.715a4.41,4.41,0,0,0,8.82,0V-33.467a4.361,4.361,0,0,0-4.41-4.41,4.361,4.361,0,0,0-4.41,4.41v11.613h-6.86a3.848,3.848,0,0,0-3.871,3.871,3.848,3.848,0,0,0,3.871,3.871h6.86Zm37.632-18.032a3.388,3.388,0,0,0,3.381-3.381v-.147h7.987v1.96a4.331,4.331,0,0,0,4.41,4.41,4.331,4.331,0,0,0,4.41-4.41V-33.467a4.361,4.361,0,0,0-4.41-4.41,4.361,4.361,0,0,0-4.41,4.41v.441h-7.987v-.245a3.388,3.388,0,0,0-3.381-3.381H168.021a3.388,3.388,0,0,0-3.381,3.381V-17.2a3.388,3.388,0,0,0,3.381,3.381ZM175.567,8.134h23.177a9.235,9.235,0,0,0,9.408-9.163,9.245,9.245,0,0,0-9.408-9.212H175.567a9.234,9.234,0,0,0-9.359,9.212A9.224,9.224,0,0,0,175.567,8.134Zm-.637-9.163a2.512,2.512,0,0,1,2.6-2.548h19.257a2.554,2.554,0,0,1,2.646,2.548,2.514,2.514,0,0,1-2.646,2.5H177.527A2.473,2.473,0,0,1,174.93-1.029Zm-1.666-28.959h8.967v9.506h-8.967Zm17.591,3.381h7.987v2.842h-7.987Zm23.03,22.05c0,7.252,6.076,11.466,13.328,11.466S240.59,2.695,240.59-4.557v-7.105c0-7.252-6.125-11.515-13.377-11.515s-13.328,4.263-13.328,11.515Zm32.1,8.771a4.41,4.41,0,1,0,8.82,0V-12.593h2.4a3.67,3.67,0,0,0,3.675-3.675,3.67,3.67,0,0,0-3.675-3.675h-2.4V-33.467a4.361,4.361,0,0,0-4.41-4.41,4.361,4.361,0,0,0-4.41,4.41ZM212.66-29.057a3.54,3.54,0,0,0,3.626,3.675H238.14a3.639,3.639,0,0,0,3.675-3.675,3.639,3.639,0,0,0-3.675-3.675h-6.517V-34.2a4.161,4.161,0,0,0-4.41-4.165A4.161,4.161,0,0,0,222.8-34.2v1.47h-6.517A3.568,3.568,0,0,0,212.66-29.057Zm9.947,17.493a4.355,4.355,0,0,1,4.655-4.361,4.314,4.314,0,0,1,4.606,4.361v6.909a4.276,4.276,0,0,1-4.606,4.312c-2.646,0-4.655-1.715-4.655-4.312ZM296.352,4.214a4.41,4.41,0,1,0,8.82,0V-33.467a4.361,4.361,0,0,0-4.41-4.41,4.361,4.361,0,0,0-4.41,4.41ZM261.66,2.107a4.005,4.005,0,0,0,3.969,4.067,5.3,5.3,0,0,0,2.156-.441c17.787-8.232,22.54-22.54,22.54-35.525v-2.695a3.409,3.409,0,0,0-3.43-3.43H266.021a3.64,3.64,0,0,0-3.626,3.724,3.618,3.618,0,0,0,3.626,3.626h15.484c0,11.466-5.341,20.874-17.591,26.95A4.124,4.124,0,0,0,261.66,2.107Z" transform="translate(428 878.397)"/><path d="M4.78,2.86A20.953,20.953,0,0,1,2.62-1.86,18.058,18.058,0,0,1,1.84-7.3a17.987,17.987,0,0,1,.78-5.42,20.953,20.953,0,0,1,2.16-4.72l1.14.52a16.6,16.6,0,0,0-1.94,4.61A20.342,20.342,0,0,0,3.36-7.3a20.462,20.462,0,0,0,.62,5.02,16.294,16.294,0,0,0,1.94,4.6Zm5.3-7.16q.9,0,1.68-.03t1.51-.09q.73-.06,1.43-.16t1.44-.26l.14,1.36q-.8.18-1.56.28t-1.56.16q-.8.06-1.66.08t-1.86.02H8.46V-14.28h6.68v1.34H10.08ZM23.06-16.46V1.48H21.48v-9.4H18.94V.58H17.4V-16.06h1.54v6.8h2.54v-7.2Zm13.8,3.52H26.28v-1.32h4.46v-2.18h1.64v2.18h4.48ZM28.84-8.62a1.779,1.779,0,0,0,.74,1.51,3.244,3.244,0,0,0,1.98.55,3.3,3.3,0,0,0,1.98-.55,1.763,1.763,0,0,0,.76-1.51,1.744,1.744,0,0,0-.76-1.49,3.3,3.3,0,0,0-1.98-.55,3.244,3.244,0,0,0-1.98.55A1.759,1.759,0,0,0,28.84-8.62Zm7.02,0a3.042,3.042,0,0,1-.31,1.38,2.961,2.961,0,0,1-.88,1.05,4.321,4.321,0,0,1-1.36.67,6,6,0,0,1-1.75.24,5.9,5.9,0,0,1-1.74-.24,4.337,4.337,0,0,1-1.35-.67,2.961,2.961,0,0,1-.88-1.05,3.042,3.042,0,0,1-.31-1.38,3,3,0,0,1,.31-1.36,2.961,2.961,0,0,1,.88-1.05,4.337,4.337,0,0,1,1.35-.67,5.9,5.9,0,0,1,1.74-.24,6,6,0,0,1,1.75.24,4.321,4.321,0,0,1,1.36.67,2.961,2.961,0,0,1,.88,1.05A3,3,0,0,1,35.86-8.62ZM30.62-.26H40.94V1.08H28.98V-4.06h1.64ZM42.8-10.54v1.38H40.14V-3H38.5V-16.44h1.64v5.9ZM59.34-3.56H57.7V-16.44h1.64Zm-7-10.02H47.16v5.7h5.18Zm1.6,7.02H45.56V-14.9h8.38ZM59.88-.44V.88H47.8V-4.78h1.64V-.44ZM71.96-7.86v3.28H77.3V1.46H75.66V-3.26H64.74V-4.58h5.58V-7.86h-7.3V-9.2H75.1a17.226,17.226,0,0,0,.42-2.84q.06-1.22.06-2.24H65.1V-15.6H77.2v1.3q0,1.02-.05,2.26a17.189,17.189,0,0,1-.39,2.84H79.3v1.34Zm18.4,0v3.28H95.7V1.46H94.06V-3.26H83.14V-4.58h5.58V-7.86h-7.3V-9.2H93.5a17.226,17.226,0,0,0,.42-2.84q.06-1.22.06-2.24H83.5V-15.6H95.6v1.3q0,1.02-.05,2.26a17.189,17.189,0,0,1-.39,2.84H97.7v1.34Zm20.84-5.08H100.3v-1.32h4.64v-2.18h1.64v2.18h4.62ZM103-8.6a1.744,1.744,0,0,0,.76,1.49,3.335,3.335,0,0,0,2,.55,3.3,3.3,0,0,0,1.98-.55,1.744,1.744,0,0,0,.76-1.49,1.763,1.763,0,0,0-.76-1.51,3.3,3.3,0,0,0-1.98-.55,3.335,3.335,0,0,0-2,.55A1.763,1.763,0,0,0,103-8.6Zm3.58,5.16q1.28-.06,2.56-.16t2.52-.26l.12,1.22q-1.5.24-3.04.39t-3.03.22q-1.49.07-2.9.09t-2.65.02L99.92-3.3q1.14,0,2.41-.02t2.61-.06V-5.3a4.491,4.491,0,0,1-2.55-1.07,2.888,2.888,0,0,1-.95-2.23,2.98,2.98,0,0,1,.31-1.37,3.08,3.08,0,0,1,.88-1.05,4.045,4.045,0,0,1,1.37-.67,6.354,6.354,0,0,1,1.76-.23,6.248,6.248,0,0,1,1.75.23,4.055,4.055,0,0,1,1.36.67,3.08,3.08,0,0,1,.88,1.05,2.98,2.98,0,0,1,.31,1.37,2.88,2.88,0,0,1-.94,2.21,4.44,4.44,0,0,1-2.54,1.07Zm7.86-13V1.48H112.8V-16.44Zm17.2,8.58v3.28h5.34V1.46h-1.64V-3.26H124.42V-4.58H130V-7.86h-7.3V-9.2h12.08a17.224,17.224,0,0,0,.42-2.84q.06-1.22.06-2.24H124.78V-15.6h12.1v1.3q0,1.02-.05,2.26a17.189,17.189,0,0,1-.39,2.84h2.54v1.34Zm24.18,4.3h-1.64V-16.44h1.64Zm-7-10.02h-5.18v5.7h5.18Zm1.6,7.02h-8.38V-14.9h8.38Zm5.94,6.12V.88H144.28V-4.78h1.64V-.44ZM167.62.2a8.627,8.627,0,0,0,3.29-.5,1.6,1.6,0,0,0,1.17-1.46,1.6,1.6,0,0,0-1.17-1.46,8.627,8.627,0,0,0-3.29-.5,8.775,8.775,0,0,0-3.32.5,1.6,1.6,0,0,0-1.18,1.46A1.6,1.6,0,0,0,164.3-.3,8.775,8.775,0,0,0,167.62.2Zm0-5.2a14.2,14.2,0,0,1,2.56.21,6.7,6.7,0,0,1,1.93.63,3.368,3.368,0,0,1,1.21,1.02,2.347,2.347,0,0,1,.42,1.38,2.347,2.347,0,0,1-.42,1.38A3.368,3.368,0,0,1,172.11.64a6.7,6.7,0,0,1-1.93.63,14.2,14.2,0,0,1-2.56.21A10.042,10.042,0,0,1,163.1.64a2.614,2.614,0,0,1-1.64-2.4,2.614,2.614,0,0,1,1.64-2.4A10.042,10.042,0,0,1,167.62-5Zm8.12-2.6v1.32H159.5V-7.6h7.3V-9.68h-5.26v-5.96h12.18v1.32H163.18V-11h10.66v1.32h-5.4V-7.6Zm7.98-7.54a5.829,5.829,0,0,1,1.93.31,4.564,4.564,0,0,1,1.52.86,3.928,3.928,0,0,1,.99,1.33,4.055,4.055,0,0,1,.36,1.72,4.055,4.055,0,0,1-.36,1.72,3.928,3.928,0,0,1-.99,1.33,4.564,4.564,0,0,1-1.52.86,5.829,5.829,0,0,1-1.93.31,5.741,5.741,0,0,1-1.92-.31,4.7,4.7,0,0,1-1.52-.86,3.869,3.869,0,0,1-1-1.33,4.055,4.055,0,0,1-.36-1.72,4.055,4.055,0,0,1,.36-1.72,3.869,3.869,0,0,1,1-1.33,4.7,4.7,0,0,1,1.52-.86A5.741,5.741,0,0,1,183.72-15.14Zm0,1.4a4,4,0,0,0-1.29.2,2.846,2.846,0,0,0-1.01.58,2.761,2.761,0,0,0-.66.9,2.687,2.687,0,0,0-.24,1.14,2.687,2.687,0,0,0,.24,1.14,2.653,2.653,0,0,0,.66.89,3.061,3.061,0,0,0,1.01.58,3.822,3.822,0,0,0,1.29.21,3.822,3.822,0,0,0,1.29-.21,3.061,3.061,0,0,0,1.01-.58,2.653,2.653,0,0,0,.66-.89,2.687,2.687,0,0,0,.24-1.14,2.687,2.687,0,0,0-.24-1.14,2.76,2.76,0,0,0-.66-.9,2.846,2.846,0,0,0-1.01-.58A4,4,0,0,0,183.72-13.74Zm8.8-2.72V1.52h-1.64V-16.46ZM178.02-3.8q1.22,0,2.65-.01t2.94-.07q1.51-.06,3.06-.19t3.03-.35l.14,1.22q-1.52.28-3.07.44t-3.04.24q-1.49.08-2.89.09t-2.62.01Zm31.4-7.56v-5.1h1.66V-5.58h-1.66V-10h-3.58v-1.36Zm-3.26,5.02a7.926,7.926,0,0,1-2.73-1.44,6.5,6.5,0,0,1-1.79-2.28,6.978,6.978,0,0,1-1.74,2.57,7.237,7.237,0,0,1-2.76,1.61l-.8-1.26a7.579,7.579,0,0,0,1.8-.9,6.672,6.672,0,0,0,1.41-1.28,5.548,5.548,0,0,0,.91-1.57,4.928,4.928,0,0,0,.32-1.75v-.34H196.8V-14.3h3.98v-2.24h1.64v2.24h3.96v1.32h-3.96v.34a4.117,4.117,0,0,0,.33,1.62,5.069,5.069,0,0,0,.93,1.44,6.65,6.65,0,0,0,1.42,1.17,7.517,7.517,0,0,0,1.82.81ZM205.14.18a7.849,7.849,0,0,0,3.21-.53,1.645,1.645,0,0,0,1.15-1.49,1.635,1.635,0,0,0-1.15-1.47,7.849,7.849,0,0,0-3.21-.53,7.714,7.714,0,0,0-3.18.53,1.633,1.633,0,0,0-1.14,1.47,1.643,1.643,0,0,0,1.14,1.49A7.714,7.714,0,0,0,205.14.18Zm0-5.3a12.977,12.977,0,0,1,2.51.22,6.753,6.753,0,0,1,1.89.64,3.251,3.251,0,0,1,1.19,1.03,2.434,2.434,0,0,1,.41,1.39,2.481,2.481,0,0,1-.41,1.4A3.212,3.212,0,0,1,209.54.6a6.753,6.753,0,0,1-1.89.64,12.977,12.977,0,0,1-2.51.22,12.7,12.7,0,0,1-2.48-.22A6.756,6.756,0,0,1,200.78.6a3.212,3.212,0,0,1-1.19-1.04,2.481,2.481,0,0,1-.41-1.4,2.434,2.434,0,0,1,.41-1.39,3.251,3.251,0,0,1,1.19-1.03,6.756,6.756,0,0,1,1.88-.64A12.7,12.7,0,0,1,205.14-5.12Zm22.6-.74v-10.6h1.64V-2.8h-1.64V-4.64H224.1V-5.86Zm-7.3-8.66a3.706,3.706,0,0,0-2.07.52,1.585,1.585,0,0,0-.79,1.38,1.6,1.6,0,0,0,.79,1.4,3.706,3.706,0,0,0,2.07.52,3.706,3.706,0,0,0,2.07-.52,1.6,1.6,0,0,0,.79-1.4,1.585,1.585,0,0,0-.79-1.38A3.706,3.706,0,0,0,220.44-14.52Zm0,5.04a6.821,6.821,0,0,1-1.79-.22,4.5,4.5,0,0,1-1.4-.63,2.919,2.919,0,0,1-.91-.99,2.646,2.646,0,0,1-.32-1.3,2.605,2.605,0,0,1,.32-1.28,2.919,2.919,0,0,1,.91-.99,4.5,4.5,0,0,1,1.4-.63,6.821,6.821,0,0,1,1.79-.22,6.821,6.821,0,0,1,1.79.22,4.5,4.5,0,0,1,1.4.63,2.919,2.919,0,0,1,.91.99,2.605,2.605,0,0,1,.32,1.28,2.646,2.646,0,0,1-.32,1.3,2.919,2.919,0,0,1-.91.99,4.5,4.5,0,0,1-1.4.63A6.821,6.821,0,0,1,220.44-9.48ZM219.8-6.9q-1.34.06-2.6.08t-2.38.02l-.22-1.36q1.24,0,2.67-.01t2.93-.07q1.5-.06,3.02-.16t2.94-.28l.14,1.18q-1.2.18-2.42.31t-2.44.21v3.54H219.8ZM229.84-.26V1.08H217.16V-4.14h1.64V-.26Zm18.04-7.32v-8.56h1.54V-5.4h-1.54v-1h-3.14V-7.58Zm-5.58-7.1a3.318,3.318,0,0,0-1.75.4,1.234,1.234,0,0,0-.65,1.1,1.234,1.234,0,0,0,.65,1.1,3.318,3.318,0,0,0,1.75.4,3.373,3.373,0,0,0,1.76-.4,1.231,1.231,0,0,0,.66-1.1,1.231,1.231,0,0,0-.66-1.1A3.373,3.373,0,0,0,242.3-14.68Zm0,4.18a6.153,6.153,0,0,1-1.59-.19,4.09,4.09,0,0,1-1.22-.53,2.433,2.433,0,0,1-.79-.84,2.253,2.253,0,0,1-.28-1.12,2.2,2.2,0,0,1,.28-1.11,2.464,2.464,0,0,1,.79-.83,4.09,4.09,0,0,1,1.22-.53,6.153,6.153,0,0,1,1.59-.19,5.042,5.042,0,0,1,2.83.71,2.222,2.222,0,0,1,1.07,1.95,2.24,2.24,0,0,1-1.07,1.97A5.042,5.042,0,0,1,242.3-10.5Zm-.74,2.2q-1.08.06-2.07.07t-1.83.01l-.2-1.28q.92,0,2.1-.01T242-9.58q1.26-.06,2.53-.16t2.39-.28l.12,1.14q-.92.18-1.91.3t-2.01.2V-5.4h-1.56Zm9.52,6.54h-8.84v1.7h8.84Zm0-2.94h1.6V1.24H240.62V-4.7h1.62v1.68h8.84Zm1.6-11.74V-5.36h-1.56V-16.44Zm6.44,12.08q.56-.02,1.11-.03t1.13-.05v-8.42h-2.24Zm3.74-.18q.48-.04.96-.09t.92-.11l.1,1.2q-1.04.2-2.23.32t-2.38.18q-1.19.06-2.29.08t-1.98.02L255.8-4.3h.85q.45,0,.97-.02v-8.54h-1.48v-1.32h8.2v1.32h-1.48Zm3.4-11.48h1.54V.54h-1.54V-8.18h-2.44V-9.62h2.44Zm5.04-.42V1.48h-1.58V-16.44Zm17.76-.02V1.52h-1.64V-16.46Zm-9.46,1.38a3.9,3.9,0,0,1,1.84.44,4.177,4.177,0,0,1,1.44,1.26,6.359,6.359,0,0,1,.94,1.97,9.13,9.13,0,0,1,.34,2.59,9.13,9.13,0,0,1-.34,2.59,6.359,6.359,0,0,1-.94,1.97A4.177,4.177,0,0,1,281.44-3a3.9,3.9,0,0,1-1.84.44A3.9,3.9,0,0,1,277.76-3a4.177,4.177,0,0,1-1.44-1.26,6.359,6.359,0,0,1-.94-1.97,9.13,9.13,0,0,1-.34-2.59,9.13,9.13,0,0,1,.34-2.59,6.359,6.359,0,0,1,.94-1.97,4.177,4.177,0,0,1,1.44-1.26A3.9,3.9,0,0,1,279.6-15.08Zm0,1.48a2.257,2.257,0,0,0-1.21.34,3.039,3.039,0,0,0-.95.96,4.97,4.97,0,0,0-.62,1.51,8.211,8.211,0,0,0-.22,1.97,8.179,8.179,0,0,0,.22,1.98,5.116,5.116,0,0,0,.62,1.51,3.007,3.007,0,0,0,.95.97,2.257,2.257,0,0,0,1.21.34,2.206,2.206,0,0,0,1.2-.34,3.05,3.05,0,0,0,.94-.97,5.116,5.116,0,0,0,.62-1.51,8.179,8.179,0,0,0,.22-1.98,8.211,8.211,0,0,0-.22-1.97,4.97,4.97,0,0,0-.62-1.51,3.083,3.083,0,0,0-.94-.96A2.206,2.206,0,0,0,279.6-13.6Zm19.58,2.62a6.993,6.993,0,0,0,.38,2.26,8.838,8.838,0,0,0,1.03,2.09,8.763,8.763,0,0,0,1.52,1.73,6.892,6.892,0,0,0,1.87,1.18l-.92,1.32a7.433,7.433,0,0,1-1.49-.92,9.794,9.794,0,0,1-1.32-1.26,9.542,9.542,0,0,1-1.09-1.54,10.475,10.475,0,0,1-.8-1.76A10.544,10.544,0,0,1,297.58-6a11.559,11.559,0,0,1-1.08,1.67,9.87,9.87,0,0,1-1.3,1.38,6.969,6.969,0,0,1-1.46.99l-.96-1.32a7.233,7.233,0,0,0,1.83-1.28,9.358,9.358,0,0,0,1.52-1.86,9.894,9.894,0,0,0,1.03-2.22,7.6,7.6,0,0,0,.38-2.34v-2.28h-4.16v-1.36H303.4v1.36h-4.22Zm8.28-5.46V1.48h-1.64V-16.44ZM310.98,2.2a16.87,16.87,0,0,0,1.93-4.6,20.154,20.154,0,0,0,.63-5.02,20.036,20.036,0,0,0-.63-5.01,17.2,17.2,0,0,0-1.93-4.61l1.12-.52a20.453,20.453,0,0,1,2.18,4.72,17.987,17.987,0,0,1,.78,5.42,18.058,18.058,0,0,1-.78,5.44,20.453,20.453,0,0,1-2.18,4.72Z" transform="translate(428 916.397)"/><path d="M2.742-5.379a2.972,2.972,0,0,1-.879-2.145,2.972,2.972,0,0,1,.879-2.145L19.828-27H9a2.986,2.986,0,0,1-2.988-2.988A2.994,2.994,0,0,1,9-33.012l10.828-.035L2.742-50.379a3.122,3.122,0,0,1-.879-2.145,3.122,3.122,0,0,1,.879-2.145,2.891,2.891,0,0,1,2.109-.879,2.834,2.834,0,0,1,2.109.879l22.184,22.5a2.972,2.972,0,0,1,.879,2.145,2.972,2.972,0,0,1-.879,2.145L6.961-5.379A2.834,2.834,0,0,1,4.852-4.5,2.891,2.891,0,0,1,2.742-5.379ZM-27-27a2.986,2.986,0,0,1-2.988-2.988A2.994,2.994,0,0,1-27-33.012l7.277-.035a3.016,3.016,0,0,1,2.988,3.023A3.039,3.039,0,0,1-19.723-27Zm18,0a2.986,2.986,0,0,1-2.988-2.988A2.994,2.994,0,0,1-9-33.012l7.277-.035a3.016,3.016,0,0,1,2.988,3.023A3.039,3.039,0,0,1-1.723-27Z" transform="translate(790.247 907.397)"/></g></svg>