<svg xmlns="http://www.w3.org/2000/svg" width="271.98" height="30.63" viewBox="0 0 271.98 30.63"><path d="M-249.06-12.03a2.074,2.074,0,0,0,2.07-2.07v-6.42a2.074,2.074,0,0,0-2.07-2.07h-21.36a2.074,2.074,0,0,0-2.07,2.07v6.42a2.074,2.074,0,0,0,2.07,2.07h8.01v2.22h-9.03a2.132,2.132,0,0,0-2.1,2.13,2.12,2.12,0,0,0,2.1,2.07h23.37a2.107,2.107,0,0,0,2.13-2.07,2.119,2.119,0,0,0-2.13-2.13h-9v-2.22Zm2.07,10.8a2.509,2.509,0,0,0-2.55-2.55h-20.97a2.087,2.087,0,0,0-2.1,2.1,2.087,2.087,0,0,0,2.1,2.1h18.12V3.03a2.566,2.566,0,0,0,2.7,2.55,2.566,2.566,0,0,0,2.7-2.55Zm-20.16-17.22h14.82v2.28h-14.82Zm50.16,10.41A2.047,2.047,0,0,0-219-10.2h-2.4l.48-4.44c.15-1.5-1.17-2.37-2.67-2.37a2.484,2.484,0,0,0-2.67,2.37l-.42,4.44h-6.09l-.39-4.44a2.484,2.484,0,0,0-2.67-2.37c-1.5,0-2.82.87-2.67,2.37l.42,4.44h-2.37a2.071,2.071,0,0,0-2.04,2.16,2.071,2.071,0,0,0,2.04,2.16H-219A2.047,2.047,0,0,0-216.99-8.04ZM-243.54,1.98a2.313,2.313,0,0,0,2.28,2.25h23.01a2.3,2.3,0,0,0,2.31-2.25,2.28,2.28,0,0,0-2.31-2.25h-3.3V-2.73c0-1.53-1.17-2.25-2.7-2.25s-2.7.72-2.7,2.25V-.27h-5.58V-2.73c0-1.53-1.17-2.25-2.7-2.25s-2.7.72-2.7,2.25V-.27h-3.33A2.292,2.292,0,0,0-243.54,1.98Zm24.84-19.74a2.074,2.074,0,0,0,2.01-2.19,2.074,2.074,0,0,0-2.01-2.19h-22.05a2.1,2.1,0,0,0-2.04,2.19,2.1,2.1,0,0,0,2.04,2.19Zm5.16,10.08a2.12,2.12,0,0,0,2.1,2.07h23.37a2.107,2.107,0,0,0,2.13-2.07,2.119,2.119,0,0,0-2.13-2.13h-23.37A2.132,2.132,0,0,0-213.54-7.68Zm1.05,10.11a2.509,2.509,0,0,0,2.55,2.55h21.45a2.087,2.087,0,0,0,2.1-2.1,2.087,2.087,0,0,0-2.1-2.1h-18.6V-1.83a2.45,2.45,0,0,0-2.7-2.4,2.45,2.45,0,0,0-2.7,2.4Zm23.7-14.76a2.087,2.087,0,0,0,2.1-2.1,2.087,2.087,0,0,0-2.1-2.1h-18.3v-3.96a2.652,2.652,0,0,0-2.7-2.7,2.652,2.652,0,0,0-2.7,2.7v6.09a2.074,2.074,0,0,0,2.07,2.07ZM-163.5-1.62V-19.83a2.215,2.215,0,0,0-1.29-2.16,2.972,2.972,0,0,0-2.88.36l-5.91,3.96a2.32,2.32,0,0,0-.39,3.39,2.49,2.49,0,0,0,3.3.69l1.77-1.2V-1.62h-3.6a2.209,2.209,0,0,0-2.04,2.4,2.191,2.191,0,0,0,2.04,2.4h11.4a2.209,2.209,0,0,0,2.04-2.4,2.191,2.191,0,0,0-2.04-2.4Zm17.25-20.58c-6.24,0-10.71,4.56-10.71,12.81,0,8.28,4.47,12.87,10.71,12.87,6.21,0,10.71-4.59,10.71-12.87C-135.54-17.64-140.04-22.2-146.25-22.2Zm-5.37,12.81c0-5.13,1.92-8.07,5.37-8.07s5.37,2.94,5.37,8.07c0,5.16-1.89,8.13-5.37,8.13C-149.7-1.26-151.62-4.23-151.62-9.39Zm29.19-12.81c-6.24,0-10.71,4.56-10.71,12.81,0,8.28,4.47,12.87,10.71,12.87,6.21,0,10.71-4.59,10.71-12.87C-111.72-17.64-116.22-22.2-122.43-22.2ZM-127.8-9.39c0-5.13,1.92-8.07,5.37-8.07s5.37,2.94,5.37,8.07c0,5.16-1.89,8.13-5.37,8.13C-125.88-1.26-127.8-4.23-127.8-9.39ZM-105.99,7.2c1.71-.93,2.97-3.27,2.97-5.97a2.99,2.99,0,0,0-3.06-3.03,2.908,2.908,0,0,0-3,2.88,2.743,2.743,0,0,0,2.43,2.79,3.325,3.325,0,0,1-.72,1.65,1.678,1.678,0,0,0-.45.93.96.96,0,0,0,1.05.99A1.7,1.7,0,0,0-105.99,7.2Zm16.44-29.4c-6.24,0-10.71,4.56-10.71,12.81,0,8.28,4.47,12.87,10.71,12.87,6.21,0,10.71-4.59,10.71-12.87C-78.84-17.64-83.34-22.2-89.55-22.2ZM-94.92-9.39c0-5.13,1.92-8.07,5.37-8.07s5.37,2.94,5.37,8.07c0,5.16-1.89,8.13-5.37,8.13C-93-1.26-94.92-4.23-94.92-9.39ZM-65.73-22.2c-6.24,0-10.71,4.56-10.71,12.81,0,8.28,4.47,12.87,10.71,12.87,6.21,0,10.71-4.59,10.71-12.87C-55.02-17.64-59.52-22.2-65.73-22.2ZM-71.1-9.39c0-5.13,1.92-8.07,5.37-8.07s5.37,2.94,5.37,8.07c0,5.16-1.89,8.13-5.37,8.13C-69.18-1.26-71.1-4.23-71.1-9.39ZM-41.91-22.2c-6.24,0-10.71,4.56-10.71,12.81,0,8.28,4.47,12.87,10.71,12.87,6.21,0,10.71-4.59,10.71-12.87C-31.2-17.64-35.7-22.2-41.91-22.2ZM-47.28-9.39c0-5.13,1.92-8.07,5.37-8.07s5.37,2.94,5.37,8.07c0,5.16-1.89,8.13-5.37,8.13C-45.36-1.26-47.28-4.23-47.28-9.39Zm33.06.93a2.074,2.074,0,0,0,2.07-2.07v-.09h4.89v1.2a2.652,2.652,0,0,0,2.7,2.7,2.652,2.652,0,0,0,2.7-2.7V-20.49a2.67,2.67,0,0,0-2.7-2.7,2.67,2.67,0,0,0-2.7,2.7v.27h-4.89v-.15a2.074,2.074,0,0,0-2.07-2.07H-26.13a2.074,2.074,0,0,0-2.07,2.07v9.84a2.074,2.074,0,0,0,2.07,2.07ZM-21.51,4.98H-7.32A5.654,5.654,0,0,0-1.56-.63,5.66,5.66,0,0,0-7.32-6.27H-21.51A5.653,5.653,0,0,0-27.24-.63,5.647,5.647,0,0,0-21.51,4.98ZM-21.9-.63a1.538,1.538,0,0,1,1.59-1.56H-8.52A1.563,1.563,0,0,1-6.9-.63,1.539,1.539,0,0,1-8.52.9H-20.31A1.514,1.514,0,0,1-21.9-.63Zm-1.02-17.73h5.49v5.82h-5.49Zm10.77,2.07h4.89v1.74h-4.89Z" transform="translate(273.54 23.19)" fill="#fff"/></svg>