<svg xmlns="http://www.w3.org/2000/svg" width="342" height="245.046" viewBox="0 0 342 245.046"><g transform="translate(-694.675 -65.029)"><path d="M709.333,167.527c10.225-2.512,17.423,2.293,18.37,8.973a11.437,11.437,0,0,1-4.346,10.983c3.791.032,7.671,2.648,8.447,8.124,1.282,9.035-6.245,16.436-16.2,18.882-7.158,1.758-13.513.146-16.995-4.381a4.7,4.7,0,0,1,.515-6.19c1.659-1.654,4.6-2.546,6.413-.726a9.412,9.412,0,0,0,9.294,2.7c5-1.229,7.9-4.377,7.4-7.936-.6-4.217-5.382-4.571-10.225-3.382-2.476.608-4.4-.392-4.788-3.13a4.4,4.4,0,0,1,3.608-5.192c3.982-.978,7.917-3.078,7.373-6.91-.435-3.066-3.874-4.148-7.48-3.263a10.463,10.463,0,0,0-7.291,5.927,4.889,4.889,0,0,1-5.911,2.7,4.141,4.141,0,0,1-2.476-5.681C697.106,173.986,702.176,169.285,709.333,167.527Z" transform="translate(0 -43.254)" fill="#fff"/><path d="M803.539,168.328c2.143,15.113-4.741,25.473-15.882,28.209-11.194,2.749-20.4-3.658-22.544-18.77-2.136-15.057,4.7-25.35,15.9-28.1C792.15,146.931,801.4,153.271,803.539,168.328ZM786.43,187.886c6.243-1.533,8.864-7.787,7.529-17.2-1.328-9.362-5.533-13.883-11.722-12.363s-8.872,7.732-7.544,17.1C776.028,184.832,780.242,189.406,786.43,187.886Z" transform="translate(-29.757 -35.691)" fill="#fff"/><path d="M864.55,168.774c2.315-.568,3.963,1.236,4.281,3.482.311,2.19-.724,4.71-3.039,5.279l-20.45,5.023c-2.315.568-3.963-1.237-4.281-3.481-.31-2.19.725-4.711,3.039-5.279l6.458-1.586-3.409-24.037-2.864,2.97a4.4,4.4,0,1,1-6.276-6.164l9.577-9.832a5.713,5.713,0,0,1,5.073-1.926,3.631,3.631,0,0,1,2.874,3.374l4.713,33.237Z" transform="translate(-60.346 -28.934)" fill="#fff"/><path d="M899.695,160.564c-2.313.568-4.185-1.238-4.5-3.483a4.736,4.736,0,0,1,3.261-5.277l24.541-6.028c2.313-.568,4.17,1.129,4.488,3.374.311,2.19-.932,4.818-3.246,5.387Z" transform="translate(-85.161 -34.255)" fill="#fff"/><path d="M964.267,128.659a3.391,3.391,0,0,1-4.249-2.866l-2.943-20.751a5.421,5.421,0,0,1,4.052-5.981,4.266,4.266,0,0,1,5.419,3.655l.49,3.449,9.849-2.419-.49-3.449a5.422,5.422,0,0,1,4.053-5.981,4.266,4.266,0,0,1,5.419,3.655l.9,6.351,8.772-2.155L994.5,94.83a5.554,5.554,0,0,1,4.144-6.118,4.37,4.37,0,0,1,5.543,3.739l4.162,29.348a5.514,5.514,0,0,1-4.145,6.118,4.343,4.343,0,0,1-5.543-3.738l-2.049-14.455-8.772,2.155.97,6.844a4.32,4.32,0,0,1-3.177,4.69Zm-.4,7.749c-.388-2.738,1.532-4.909,4.223-5.57s5.077.452,5.465,3.19l.839,5.914L1007,131.932a3.415,3.415,0,0,1,4.311,2.908,4.343,4.343,0,0,1-3.223,4.757l-37.726,9.266a4.108,4.108,0,0,1-5.234-3.53Zm14.956-19.029-.893-6.3-9.848,2.419.893,6.3Z" transform="translate(-111.447 -9.998)" fill="#fff"/><path d="M1053.83,120.062c2.565-8.223.413-24.183-.379-29.768l-.653-4.6-.377.093c-2.422.595-3.808-.935-4.126-3.18-.334-2.354.54-4.439,2.962-5.034l7.75-1.9c2.207-.542,3.163,1.093,3.5,3.448.3,2.081-.056,3.924-1.793,4.634l.652,4.6c.869,6.133,3.737,22.03,6.17,24.265,1.657-3.24-.026-19.428-.9-25.56l-.652-4.6c-1.868.175-2.648-1.39-2.943-3.471-.334-2.354.11-4.333,2.316-4.875l7.749-1.9c2.422-.595,3.809.935,4.143,3.289.318,2.245-.556,4.329-2.977,4.925l-.377.092.652,4.6c.792,5.585,3.16,21.493,7.806,27.944a4.325,4.325,0,0,1-2.445,6.72,3.428,3.428,0,0,1-3.678-1.194,16.174,16.174,0,0,1-2.329-5.037c-.555,5.122-1.987,8.76-4.894,9.474s-5.294-1.986-7.215-6.5a20.989,20.989,0,0,1-.739,5.79,4.345,4.345,0,0,1-3.1,2.859,3.359,3.359,0,0,1-4.311-2.908A4.835,4.835,0,0,1,1053.83,120.062Zm24.508-46.7a4.8,4.8,0,0,1,3.591-5.3,3.815,3.815,0,0,1,4.858,3.226l2.205,15.551,2.206-.542-2.236-15.77a4.809,4.809,0,0,1,3.584-5.357,3.84,3.84,0,0,1,4.919,3.268l6.142,43.311a4.836,4.836,0,0,1-3.692,5.383,3.76,3.76,0,0,1-4.811-3.295l-2.757-19.438-2.206.542,2.725,19.219a4.808,4.808,0,0,1-3.646,5.315,3.748,3.748,0,0,1-4.8-3.239Z" transform="translate(-150.191)" fill="#fff"/><path d="M762.554,320.292a5.332,5.332,0,0,1-4.183,5.843c-2.691.661-5.115-.727-5.5-3.464l-.87-6.133-32.505,7.984a3.414,3.414,0,0,1-4.311-2.908,4.343,4.343,0,0,1,3.223-4.757l14.477-3.556-.932-6.57L715.805,310.7a3.464,3.464,0,0,1-4.3-2.853,4.442,4.442,0,0,1,3.216-4.813l30.945-7.6a33.611,33.611,0,0,0,1.122-11.721l-32.02,7.865a3.387,3.387,0,0,1-4.311-2.908,4.344,4.344,0,0,1,3.223-4.757l37.995-9.333a3.392,3.392,0,0,1,4.25,2.866,42.054,42.054,0,0,1-.41,15.57l1.13-.278a3.467,3.467,0,0,1,4.372,2.949,4.387,4.387,0,0,1-3.285,4.717l-16.2,3.979.932,6.571,13.561-3.332a4.108,4.108,0,0,1,5.235,3.53Z" transform="translate(-15.738 -87.971)" fill="#fff"/><path d="M815.483,261.837l-.233-1.642c-.4-2.793,1.517-4.622,4.261-5.3s5.03.124,5.426,2.917l.234,1.642,8.126-2a3.391,3.391,0,0,1,4.249,2.866,4.32,4.32,0,0,1-3.177,4.691L808.375,271.4a3.392,3.392,0,0,1-4.25-2.866,4.32,4.32,0,0,1,3.177-4.691Zm-.04,10.322,12.432-3.054a8.357,8.357,0,0,1,10.53,7.1,10.568,10.568,0,0,1-7.89,11.514l-12.432,3.053a8.253,8.253,0,0,1-10.408-7.019A10.568,10.568,0,0,1,815.444,272.16ZM808.2,305.9a4.53,4.53,0,0,1,3.47-4.989c2.852-.7,5.92-1.454,9.079-2.343l-.419-2.957c-.4-2.793,1.5-4.335,4.246-5.009s4.937-.136,5.333,2.656l.342,2.409c3.191-1.068,6.265-2.163,9.047-3.356a5.156,5.156,0,0,1,.792-.308,3.569,3.569,0,0,1,4.6,3.006,4.439,4.439,0,0,1-2.993,4.814c-7.979,3.433-19.533,6.782-28.9,9.081A3.568,3.568,0,0,1,808.2,305.9Zm11.159-23.026,7.911-1.944a2.238,2.238,0,0,0,1.658-2.447,1.76,1.76,0,0,0-2.217-1.5l-7.911,1.943a2.24,2.24,0,0,0-1.658,2.447A1.76,1.76,0,0,0,819.357,282.871Zm21.19-26.906a5.555,5.555,0,0,1,4.145-6.118,4.37,4.37,0,0,1,5.542,3.738l5.972,42.106a5.516,5.516,0,0,1-4.144,6.118,4.343,4.343,0,0,1-5.543-3.739Z" transform="translate(-55.531 -77.449)" fill="#fff"/><path d="M900.364,250.041c-1.149-8.1,5.371-14.352,13.875-16.44s16.513.59,17.662,8.693l1.188,8.378c1.149,8.1-5.541,14.337-14.044,16.425s-16.343-.575-17.492-8.679Zm2.474,32.766a4.638,4.638,0,0,1,3.454-5.1c9.795-2.405,19.6-5.153,27.682-8.612a5.159,5.159,0,0,1,.792-.308,3.647,3.647,0,0,1,4.619,3.115,4.556,4.556,0,0,1-2.977,4.924c-7.979,3.433-18.51,6.53-28.951,9.094A3.647,3.647,0,0,1,902.838,282.807Zm8.17-26.824c.411,2.9,3.3,4.006,6.9,3.12s6.1-3.312,5.69-6.214l-1.157-8.159c-.412-2.9-3.42-4.09-7.027-3.2s-5.978,3.395-5.566,6.3Zm24.194-23a5.555,5.555,0,0,1,4.144-6.117,4.371,4.371,0,0,1,5.543,3.738l5.971,42.106a5.514,5.514,0,0,1-4.145,6.118,4.342,4.342,0,0,1-5.542-3.739Z" transform="translate(-96.374 -67.687)" fill="#fff"/><path d="M1000.143,213.142l15.5-3.807a7.79,7.79,0,0,1,9.792,6.6,9.916,9.916,0,0,1-7.322,10.808l-15.5,3.807a7.79,7.79,0,0,1-9.792-6.6A9.916,9.916,0,0,1,1000.143,213.142Zm7.349,31a29.593,29.593,0,0,0,.017-4.594l-10.172,2.5a3.464,3.464,0,0,1-4.3-2.854,4.441,4.441,0,0,1,3.216-4.812l29.707-7.3a3.467,3.467,0,0,1,4.373,2.948,4.39,4.39,0,0,1-3.286,4.718l-9.9,2.432a29.761,29.761,0,0,1-.266,7.942,5.558,5.558,0,0,1-4.263,4.106c-2.583.634-4.745-.477-5.119-3.105A8.545,8.545,0,0,1,1007.491,244.144ZM998.443,253c-.388-2.737,1.531-4.909,4.222-5.57s5.077.453,5.465,3.191l.606,4.271,32.613-8.011a3.415,3.415,0,0,1,4.31,2.907,4.343,4.343,0,0,1-3.223,4.758l-37.725,9.267a4.108,4.108,0,0,1-5.234-3.531Zm5.474-30.128,10.871-2.671a1.759,1.759,0,0,0,1.281-1.958,1.383,1.383,0,0,0-1.731-1.218l-10.871,2.671a1.759,1.759,0,0,0-1.282,1.958A1.384,1.384,0,0,0,1003.917,222.868Zm20.784,14.217,7.749-1.9-3.6-25.406a5.555,5.555,0,0,1,4.145-6.117,4.369,4.369,0,0,1,5.542,3.738l4.613,32.524c.4,2.847-1.531,4.909-4.223,5.57-2.637.648-4.937-.261-5.433-2.972l-7.75,1.9a3.362,3.362,0,0,1-4.227-2.7A4.308,4.308,0,0,1,1024.7,237.084Z" transform="translate(-135.668 -57.827)" fill="#fff"/><path d="M1098.1,281.787a1.578,1.578,0,0,1-2.14-1.344,3.46,3.46,0,0,1,.567-1.9,6.821,6.821,0,0,0,.864-3.329,4.475,4.475,0,0,1-5.081-4.021,6.051,6.051,0,0,1,4.636-6.578,4.9,4.9,0,0,1,6.274,4.182c.7,4.928-.955,9.754-3.782,12.205A3.431,3.431,0,0,1,1098.1,281.787Z" transform="translate(-177.948 -83.714)" fill="#fff"/><path d="M740.913,466.577l-2.852,2.589-9.652-12.238,5.612-16.047,3.4,1.083L732.5,455.923Zm5.493-1.349-2.852,2.589L733.9,455.579l5.612-16.047,3.4,1.082-4.922,13.959Z" transform="translate(-14.33 -159.091)" fill="#fff"/><path d="M760.443,456.337c3.126-4.132,4.309-8.467,3.371-15.083l-.085-.6-3.839.943a1.875,1.875,0,0,1-2.341-1.58,2.4,2.4,0,0,1,1.743-2.641l3.839-.943-.178-1.256a2.79,2.79,0,0,1,2.271-2.8A2.124,2.124,0,0,1,768,433.94l.178,1.255,3.783-.93a1.871,1.871,0,0,1,2.405,1.623,2.36,2.36,0,0,1-1.807,2.6l-3.784.93.085.6c.938,6.616,3.186,9.99,7.234,12.36a2.314,2.314,0,0,1,1.143,1.726,2.575,2.575,0,0,1-2.066,2.81,2.4,2.4,0,0,1-1.763-.158,14.576,14.576,0,0,1-5.57-5.537,18.924,18.924,0,0,1-3.629,7.945,2.944,2.944,0,0,1-1.628.99,2.031,2.031,0,0,1-2.7-1.639A2.9,2.9,0,0,1,760.443,456.337Zm15.5-23.64a2.893,2.893,0,0,1,2.159-3.186,2.275,2.275,0,0,1,2.886,1.947l1.116,7.872,1.374-.337a1.913,1.913,0,0,1,2.4,1.623,2.436,2.436,0,0,1-1.8,2.655l-1.374.338,1.387,9.782a2.873,2.873,0,0,1-2.158,3.187,2.262,2.262,0,0,1-2.886-1.948Z" transform="translate(-26.699 -154.801)" fill="#fff"/><path d="M809.626,435.6a1.766,1.766,0,0,1-2.213-1.493l-1.229-8.67a2.687,2.687,0,0,1,2.13-2.973,2.122,2.122,0,0,1,2.8,1.761l.113.8,5.128-1.26-.113-.8A2.688,2.688,0,0,1,818.375,420a2.144,2.144,0,0,1,2.786,1.647l4.568-1.122-.056-.4a2.756,2.756,0,0,1,2.178-3.043,2.175,2.175,0,0,1,2.866,1.8l1.371,9.668a2.737,2.737,0,0,1-2.178,3.044,2.162,2.162,0,0,1-2.866-1.8l-.061-.428-4.568,1.122a2.262,2.262,0,0,1-1.662,2.386Zm5.558,7.9.133.942,17.32-4.254a1.453,1.453,0,0,1,1.86,1.254,1.845,1.845,0,0,1-1.391,2.055L812.368,448.6a1.454,1.454,0,0,1-1.86-1.256l-.591-4.164a1.806,1.806,0,0,1,1.319-1.947l16.843-4.137-.129-.912-16.927,4.158a1.442,1.442,0,0,1-1.828-1.233,1.831,1.831,0,0,1,1.367-2.018l20.375-5a1.441,1.441,0,0,1,1.828,1.233l.582,4.106a1.784,1.784,0,0,1-1.319,1.948ZM817.2,429.73l-.3-2.139-5.128,1.26.3,2.139Zm4.681-2.979,4.569-1.122-.194-1.369-4.568,1.122Z" transform="translate(-47.358 -149.517)" fill="#fff"/><path d="M857.555,415a1.764,1.764,0,0,1-2.245-1.515,2.263,2.263,0,0,1,1.679-2.478l19.785-4.86a1.767,1.767,0,0,1,2.213,1.494,22.526,22.526,0,0,1-.261,8.18l.644-.159a1.806,1.806,0,0,1,2.277,1.536,2.287,2.287,0,0,1-1.711,2.457l-21.832,5.363a1.8,1.8,0,0,1-2.24-1.486,2.313,2.313,0,0,1,1.674-2.507l16.086-3.952a17.264,17.264,0,0,0,.6-6.169Zm3.263,22.189a1.766,1.766,0,0,1-2.213-1.493l-.878-6.189a2.25,2.25,0,0,1,1.655-2.443l19.953-4.9a1.766,1.766,0,0,1,2.213,1.493l.878,6.189a2.249,2.249,0,0,1-1.655,2.443Zm2.5-4.686,13.844-3.4-.32-2.253L863,430.252Z" transform="translate(-68.23 -144.885)" fill="#fff"/><path d="M906.4,420.174c3.127-4.133,4.385-8.958,3.326-16.43l-.166-1.169-3.979.978a1.875,1.875,0,0,1-2.342-1.579,2.4,2.4,0,0,1,1.743-2.641l12.947-3.181a1.871,1.871,0,0,1,2.405,1.623,2.358,2.358,0,0,1-1.807,2.6l-3.923.964.166,1.169c1.06,7.473,3.513,11.268,7.561,13.638a2.254,2.254,0,0,1,1.139,1.7,2.625,2.625,0,0,1-2.046,2.952,2.4,2.4,0,0,1-1.763-.158,14.955,14.955,0,0,1-5.8-6.13,19.4,19.4,0,0,1-3.68,8.607,2.944,2.944,0,0,1-1.628.99,2.074,2.074,0,0,1-2.718-1.782A2.839,2.839,0,0,1,906.4,420.174Zm16.3-23.719a2.894,2.894,0,0,1,2.159-3.186,2.277,2.277,0,0,1,2.886,1.947l3.11,21.932a2.872,2.872,0,0,1-2.158,3.187,2.262,2.262,0,0,1-2.886-1.948Z" transform="translate(-88.589 -139.406)" fill="#fff"/><path d="M955.914,400.362a1.766,1.766,0,0,1-2.213-1.493l-1.3-9.184a2.825,2.825,0,0,1,2.11-3.116,2.222,2.222,0,0,1,2.822,1.9l.141,1,5.128-1.26-.141-1a2.824,2.824,0,0,1,2.11-3.116,2.222,2.222,0,0,1,2.822,1.9l.32,2.253,4.568-1.122-.392-2.766a2.893,2.893,0,0,1,2.158-3.186,2.276,2.276,0,0,1,2.886,1.947l1.416,9.981a2.873,2.873,0,0,1-2.158,3.187,2.262,2.262,0,0,1-2.886-1.948l-.465-3.279-4.568,1.122.424,2.994a2.25,2.25,0,0,1-1.655,2.443Zm24.173,5.012a2.251,2.251,0,0,1-1.655,2.443l-19.561,4.8a1.766,1.766,0,0,1-2.213-1.493l-1-7.016c-.2-1.426.822-2.386,2.195-2.724,1.345-.33,2.563.079,2.79,1.47l13.452-3.3c-.2-1.4.826-2.358,2.2-2.7s2.591.072,2.793,1.5Zm-16.6-10.887-.347-2.453-5.128,1.26.347,2.453Zm11.337,10.2-.19-1.34-13.453,3.3.19,1.34Z" transform="translate(-109.471 -134.271)" fill="#fff"/><path d="M1006.656,389.078,998.239,378.4l2.876-2.624,9.633,12.3-5.648,16-3.37-1.061Zm5.493-1.349-8.417-10.683,2.875-2.625,9.633,12.3-5.649,16-3.37-1.061Z" transform="translate(-128.956 -131.431)" fill="#fff"/><path d="M1034.533,367.665l16.142-3.965a3.689,3.689,0,0,1,4.715,3.181,4.682,4.682,0,0,1-3.525,5.2l-16.142,3.965a3.688,3.688,0,0,1-4.714-3.18A4.682,4.682,0,0,1,1034.533,367.665Zm-1.672,10.5,22.224-5.459a1.616,1.616,0,0,1,2.052,1.384,2.042,2.042,0,0,1-1.543,2.209l-22.224,5.459a1.6,1.6,0,0,1-2.015-1.335A2.047,2.047,0,0,1,1032.861,378.169Zm5.975,11.046.15,1.055,17.712-4.35a1.454,1.454,0,0,1,1.86,1.254,1.846,1.846,0,0,1-1.391,2.055l-21.131,5.19a1.454,1.454,0,0,1-1.86-1.255l-.594-4.193a1.68,1.68,0,0,1,1.247-1.841l17.319-4.254-.145-1.026-17.375,4.268a1.386,1.386,0,0,1-1.764-1.189,1.763,1.763,0,0,1,1.319-1.949l20.878-5.128a1.388,1.388,0,0,1,1.765,1.191l.578,4.078a1.679,1.679,0,0,1-1.247,1.841Zm-2.038-17.03,13-3.194a.785.785,0,0,0,.6-.885.619.619,0,0,0-.8-.541l-13,3.194a.783.783,0,0,0-.6.885A.619.619,0,0,0,1036.8,372.185Z" transform="translate(-142.856 -126.821)" fill="#fff"/><path d="M1097.13,365.189a1.767,1.767,0,0,1-2.213-1.493l-1.208-8.528a2.822,2.822,0,0,1,2.11-3.115,2.223,2.223,0,0,1,2.823,1.9l.093.655,5.129-1.26-.093-.655a2.823,2.823,0,0,1,2.11-3.116,2.223,2.223,0,0,1,2.823,1.9l1.209,8.527a2.249,2.249,0,0,1-1.654,2.443Zm5.557,7.9.134.942,16.255-3.993a1.453,1.453,0,0,1,1.859,1.255,1.844,1.844,0,0,1-1.39,2.053l-19.674,4.833a1.454,1.454,0,0,1-1.86-1.256l-.59-4.164a1.806,1.806,0,0,1,1.319-1.947l15.778-3.876-.129-.912-15.862,3.9a1.441,1.441,0,0,1-1.827-1.233,1.83,1.83,0,0,1,1.366-2.018l19.309-4.743a1.441,1.441,0,0,1,1.828,1.233l.583,4.106a1.784,1.784,0,0,1-1.319,1.947Zm2.02-13.776-.3-2.139-5.128,1.26.3,2.139Zm7.424-9.2a2.893,2.893,0,0,1,2.158-3.186,2.276,2.276,0,0,1,2.886,1.947l.364,2.567,1.513-.372a1.779,1.779,0,0,1,2.245,1.515,2.262,2.262,0,0,1-1.679,2.478l-1.513.372.4,2.824a2.873,2.873,0,0,1-2.158,3.187,2.263,2.263,0,0,1-2.887-1.948Z" transform="translate(-169.5 -119.719)" fill="#fff"/><path d="M1144.257,346.692c-.6-4.221,2.8-7.475,7.225-8.563s8.6.308,9.2,4.529l.62,4.363c.6,4.221-2.886,7.468-7.314,8.555s-8.51-.3-9.109-4.521Zm1.289,17.067a2.415,2.415,0,0,1,1.8-2.655,96.41,96.41,0,0,0,14.416-4.485,2.584,2.584,0,0,1,.412-.16,1.9,1.9,0,0,1,2.406,1.623,2.372,2.372,0,0,1-1.551,2.564,101.83,101.83,0,0,1-15.076,4.737A1.9,1.9,0,0,1,1145.546,363.759Zm4.254-13.972c.215,1.511,1.718,2.087,3.595,1.625s3.178-1.725,2.963-3.236l-.6-4.25c-.214-1.511-1.781-2.131-3.659-1.669s-3.114,1.769-2.9,3.28Zm12.6-11.978a2.892,2.892,0,0,1,2.158-3.186,2.275,2.275,0,0,1,2.886,1.946l3.111,21.932a2.872,2.872,0,0,1-2.159,3.187,2.261,2.261,0,0,1-2.886-1.947Z" transform="translate(-190.956 -114.492)" fill="#fff"/><path d="M1192.465,330.774l3.728-.916-.121-.855a2.757,2.757,0,0,1,2.178-3.044,2.175,2.175,0,0,1,2.865,1.8l.121.855,3.728-.915a1.9,1.9,0,0,1,2.4,1.623,2.414,2.414,0,0,1-1.8,2.655l-12.5,3.07a1.851,1.851,0,0,1-2.377-1.63A2.365,2.365,0,0,1,1192.465,330.774Zm.366,12.6c-.6-4.221,2.525-7.556,6.672-8.574s8,.6,8.6,4.823l.587,4.135c.6,4.221-2.556,7.534-6.7,8.553s-7.971-.58-8.57-4.8Zm5.566,2.853a2.261,2.261,0,0,0,3.019,1.856,2.83,2.83,0,0,0,2.278-3.157l-.57-4.021a2.257,2.257,0,0,0-2.995-1.891,2.886,2.886,0,0,0-2.3,3.193Zm10.99-20.053a2.893,2.893,0,0,1,2.158-3.186,2.276,2.276,0,0,1,2.886,1.947l1.116,7.872,1.374-.337a1.913,1.913,0,0,1,2.4,1.623,2.436,2.436,0,0,1-1.8,2.655l-1.373.338,1.387,9.782a2.873,2.873,0,0,1-2.159,3.187,2.262,2.262,0,0,1-2.886-1.948Z" transform="translate(-210.702 -109.55)" fill="#fff"/><path d="M1245.029,341.347a1.766,1.766,0,0,1-2.213-1.493l-2.916-20.563a2.25,2.25,0,0,1,1.655-2.443l11.546-2.836a1.887,1.887,0,0,1,2.373,1.6,2.4,2.4,0,0,1-1.775,2.619l-8.492,2.086,2.278,16.057a47.9,47.9,0,0,0,10.039-3.44,3.069,3.069,0,0,1,.553-.195,1.886,1.886,0,0,1,2.373,1.6,2.414,2.414,0,0,1-1.306,2.446c-3.87,1.954-7.529,2.941-12.714,4.214Zm13.29-27.141a2.893,2.893,0,0,1,2.158-3.186,2.276,2.276,0,0,1,2.886,1.947l1.116,7.872,1.374-.337a1.914,1.914,0,0,1,2.406,1.623,2.438,2.438,0,0,1-1.8,2.656l-1.373.337,1.387,9.782a2.872,2.872,0,0,1-2.158,3.187,2.261,2.261,0,0,1-2.886-1.948Z" transform="translate(-231.606 -104.466)" fill="#fff"/></g></svg>