<svg xmlns="http://www.w3.org/2000/svg" width="624" height="672.178" viewBox="0 0 624 672.178"><g transform="translate(-200 -96.458)"><g transform="translate(203.643 488.214)"><path d="M109.594,989.615l-7.19,6.527L78.068,965.291l14.15-40.457,8.576,2.729L88.383,962.758Zm13.847-3.4-7.19,6.528L91.915,961.889l14.15-40.455,8.576,2.728L102.23,959.356Z" transform="translate(-78.068 -811.276)" fill="#fff"/><path d="M114.54,979.159c7.881-10.416,10.866-21.343,8.5-38.025l-.213-1.51L113.147,942a4.726,4.726,0,0,1-5.9-3.982,6.054,6.054,0,0,1,4.392-6.658l9.68-2.378-.448-3.164c-.409-2.875,2.052-6.159,5.725-7.062,3.532-.867,6.584,1.063,6.992,3.939l.448,3.164,9.539-2.343a4.716,4.716,0,0,1,6.063,4.091,5.948,5.948,0,0,1-4.555,6.55l-9.537,2.342.215,1.51c2.365,16.682,8.031,25.187,18.238,31.163a5.831,5.831,0,0,1,2.883,4.352,6.491,6.491,0,0,1-5.21,7.082,6.044,6.044,0,0,1-4.443-.4c-6.014-3.73-10.592-7.667-14.044-13.962-1.473,7.654-4.494,13.679-9.149,20.033a7.443,7.443,0,0,1-4.107,2.493c-3.532.869-6.351-.967-6.8-4.131A7.334,7.334,0,0,1,114.54,979.159Zm39.073-59.6a7.292,7.292,0,0,1,5.442-8.034,5.736,5.736,0,0,1,7.275,4.909l2.815,19.845,3.463-.851a4.824,4.824,0,0,1,6.061,4.091,6.142,6.142,0,0,1-4.533,6.7l-3.461.851,3.5,24.661a7.24,7.24,0,0,1-5.439,8.034,5.7,5.7,0,0,1-7.278-4.909Z" transform="translate(-64.961 -815.821)" fill="#fff"/><path d="M164.564,945.815a4.451,4.451,0,0,1-5.579-3.763l-3.1-21.856a6.779,6.779,0,0,1,5.371-7.5c3.463-.85,6.555.847,7.064,4.443l.286,2.011,12.929-3.176-.286-2.013a6.778,6.778,0,0,1,5.373-7.5c3.321-.815,6.4.809,7.021,4.152l11.518-2.828-.144-1.006a6.952,6.952,0,0,1,5.493-7.672c3.531-.869,6.7.882,7.224,4.549l3.457,24.375a6.9,6.9,0,0,1-5.492,7.674c-3.532.869-6.7-.812-7.226-4.551l-.152-1.079-11.517,2.829a5.7,5.7,0,0,1-4.192,6.014Zm14.012,19.923.336,2.372,43.663-10.725a3.665,3.665,0,0,1,4.69,3.164,4.652,4.652,0,0,1-3.506,5.177l-52.284,12.842a3.665,3.665,0,0,1-4.69-3.164l-1.489-10.5A4.557,4.557,0,0,1,168.621,960l42.465-10.429-.328-2.3L168.083,957.75a3.631,3.631,0,0,1-4.607-3.109,4.617,4.617,0,0,1,3.445-5.087l51.365-12.617a3.633,3.633,0,0,1,4.608,3.109l1.468,10.354a4.5,4.5,0,0,1-3.324,4.91Zm5.09-34.733-.764-5.393-12.929,3.177.764,5.393Zm11.8-7.513,11.518-2.828-.49-3.453-11.517,2.829Z" transform="translate(-43.072 -821.421)" fill="#fff"/><path d="M210.663,910.455a4.447,4.447,0,0,1-5.66-3.817,5.7,5.7,0,0,1,4.231-6.25l49.881-12.252a4.454,4.454,0,0,1,5.579,3.765,56.754,56.754,0,0,1-.657,20.622l1.624-.4A4.552,4.552,0,0,1,271.4,916a5.76,5.76,0,0,1-4.313,6.192l-55.039,13.519a4.546,4.546,0,0,1-5.65-3.746,5.834,5.834,0,0,1,4.221-6.32l40.555-9.961c1.517-5.284,2.043-11.885,1.524-15.552Zm8.225,55.942a4.453,4.453,0,0,1-5.579-3.764l-2.213-15.6a5.673,5.673,0,0,1,4.172-6.157l50.306-12.356a4.453,4.453,0,0,1,5.579,3.762l2.213,15.6a5.674,5.674,0,0,1-4.172,6.16Zm6.295-11.814,34.9-8.573-.806-5.68-34.9,8.573Z" transform="translate(-20.956 -826.328)" fill="#fff"/><path d="M260.9,943.117c7.881-10.419,11.053-22.581,8.382-41.421l-.419-2.948-10.032,2.465a4.727,4.727,0,0,1-5.9-3.982,6.054,6.054,0,0,1,4.392-6.657l32.642-8.019a4.717,4.717,0,0,1,6.064,4.092,5.946,5.946,0,0,1-4.555,6.549l-9.891,2.43.418,2.948c2.673,18.838,8.854,28.406,19.06,34.381a5.685,5.685,0,0,1,2.874,4.279,6.618,6.618,0,0,1-5.16,7.443,6.044,6.044,0,0,1-4.443-.4,37.679,37.679,0,0,1-14.622-15.457,48.93,48.93,0,0,1-9.279,21.7,7.421,7.421,0,0,1-4.105,2.494c-3.534.869-6.363-1.041-6.852-4.491A7.15,7.15,0,0,1,260.9,943.117Zm41.09-59.8a7.293,7.293,0,0,1,5.441-8.033,5.738,5.738,0,0,1,7.277,4.908l7.842,55.292a7.243,7.243,0,0,1-5.441,8.034,5.7,5.7,0,0,1-7.278-4.91Z" transform="translate(0.615 -832.134)" fill="#fff"/><path d="M310.963,911.556a4.452,4.452,0,0,1-5.577-3.762L302.1,884.64a7.121,7.121,0,0,1,5.32-7.855,5.6,5.6,0,0,1,7.114,4.8l.357,2.519,12.929-3.177-.357-2.518a7.12,7.12,0,0,1,5.32-7.854,5.6,5.6,0,0,1,7.114,4.8l.806,5.68,11.517-2.828-.989-6.972a7.293,7.293,0,0,1,5.441-8.033,5.737,5.737,0,0,1,7.277,4.909l3.569,25.165a7.241,7.241,0,0,1-5.441,8.034,5.7,5.7,0,0,1-7.277-4.91l-1.173-8.269-11.515,2.828,1.07,7.551a5.673,5.673,0,0,1-4.172,6.159Zm60.943,12.635a5.671,5.671,0,0,1-4.172,6.159l-49.316,12.114a4.454,4.454,0,0,1-5.58-3.765l-2.507-17.687c-.512-3.595,2.072-6.015,5.532-6.866,3.392-.832,6.462.2,7.033,3.707l33.915-8.331c-.5-3.524,2.081-5.944,5.544-6.8s6.533.183,7.042,3.778Zm-41.84-27.446-.876-6.183-12.929,3.176.876,6.185Zm28.58,25.718-.48-3.379-33.914,8.331.48,3.379Z" transform="translate(22.742 -837.576)" fill="#fff"/><path d="M369.12,893.275,347.9,866.34l7.251-6.615,24.285,31.017L365.2,931.068l-8.5-2.676Zm13.849-3.4-21.22-26.933L369,856.323l24.286,31.015-14.242,40.328-8.493-2.674Z" transform="translate(43.387 -840.584)" fill="#fff"/><path d="M389.625,855.8l40.7-10a9.3,9.3,0,0,1,11.885,8.021,11.806,11.806,0,0,1-8.888,13.119l-40.7,10a9.3,9.3,0,0,1-11.885-8.018A11.808,11.808,0,0,1,389.625,855.8Zm-4.214,26.482,56.028-13.763a4.076,4.076,0,0,1,5.174,3.492,5.144,5.144,0,0,1-3.889,5.568L386.7,891.34a4.027,4.027,0,0,1-5.083-3.366A5.16,5.16,0,0,1,385.411,882.28Zm15.064,27.849.376,2.659L445.5,901.82a3.668,3.668,0,0,1,4.691,3.164,4.654,4.654,0,0,1-3.508,5.177l-53.273,13.084a3.663,3.663,0,0,1-4.69-3.163l-1.5-10.57a4.234,4.234,0,0,1,3.144-4.64l43.664-10.727-.367-2.589-43.805,10.76a3.5,3.5,0,0,1-4.448-3,4.444,4.444,0,0,1,3.327-4.91l52.636-12.928a3.5,3.5,0,0,1,4.446,3l1.459,10.281a4.237,4.237,0,0,1-3.144,4.643Zm-5.139-42.935,32.783-8.052a1.977,1.977,0,0,0,1.511-2.233,1.558,1.558,0,0,0-2.021-1.362L394.825,863.6a1.975,1.975,0,0,0-1.511,2.23A1.56,1.56,0,0,0,395.335,867.195Z" transform="translate(58.116 -845.469)" fill="#fff"/><path d="M96.7,1036.04a4.453,4.453,0,0,1-5.58-3.763l-3.048-21.5a7.117,7.117,0,0,1,5.319-7.854,5.6,5.6,0,0,1,7.116,4.8l.235,1.653,12.929-3.176-.235-1.652a7.121,7.121,0,0,1,5.32-7.855,5.6,5.6,0,0,1,7.114,4.8l3.05,21.5a5.675,5.675,0,0,1-4.172,6.16Zm14.011,19.923.338,2.372,40.976-10.065a3.666,3.666,0,0,1,4.691,3.163,4.654,4.654,0,0,1-3.508,5.178l-49.6,12.182a3.665,3.665,0,0,1-4.69-3.164l-1.489-10.5a4.552,4.552,0,0,1,3.325-4.909l39.778-9.772-.326-2.3-39.99,9.822a3.634,3.634,0,0,1-4.608-3.109,4.617,4.617,0,0,1,3.447-5.087l48.679-11.956a3.631,3.631,0,0,1,4.608,3.108l1.469,10.352a4.5,4.5,0,0,1-3.325,4.909Zm5.09-34.733-.764-5.393-12.929,3.174.764,5.393Zm18.718-23.2A7.3,7.3,0,0,1,139.958,990a5.738,5.738,0,0,1,7.277,4.907l.916,6.47,3.815-.937a4.485,4.485,0,0,1,5.66,3.82,5.7,5.7,0,0,1-4.231,6.247l-3.815.938,1.009,7.117a7.242,7.242,0,0,1-5.441,8.034,5.7,5.7,0,0,1-7.277-4.91Z" transform="translate(-73.598 -788.502)" fill="#fff"/><path d="M138.681,1008.121c-1.51-10.642,7.052-18.844,18.215-21.588s21.679.777,23.189,11.42l1.56,11c1.51,10.642-7.274,18.828-18.437,21.569s-21.457-.757-22.967-11.4Zm3.251,43.028a6.088,6.088,0,0,1,4.535-6.694c12.86-3.158,25.726-6.766,36.343-11.308a6.521,6.521,0,0,1,1.04-.4,4.786,4.786,0,0,1,6.063,4.091A5.983,5.983,0,0,1,186,1043.3c-10.474,4.507-24.3,8.574-38.008,11.94A4.789,4.789,0,0,1,141.932,1051.149Zm10.725-35.223c.539,3.809,4.329,5.26,9.062,4.1s8.01-4.349,7.471-8.158l-1.52-10.712c-.541-3.811-4.491-5.373-9.224-4.21s-7.85,4.459-7.309,8.27Zm31.762-30.2a7.294,7.294,0,0,1,5.442-8.032,5.736,5.736,0,0,1,7.275,4.909l7.842,55.29a7.242,7.242,0,0,1-5.441,8.035,5.7,5.7,0,0,1-7.277-4.91Z" transform="translate(-50.863 -794.04)" fill="#fff"/><path d="M189.514,985.686l9.4-2.307-.306-2.155a6.948,6.948,0,0,1,5.492-7.674c3.534-.869,6.705.882,7.224,4.55l.306,2.155,9.4-2.309a4.788,4.788,0,0,1,6.063,4.092,6.087,6.087,0,0,1-4.533,6.694l-31.512,7.739a4.665,4.665,0,0,1-5.993-4.108A5.966,5.966,0,0,1,189.514,985.686Zm.924,31.769c-1.51-10.641,6.365-19.049,16.821-21.617s20.175,1.517,21.685,12.159l1.478,10.425c1.51,10.641-6.446,19-16.9,21.563s-20.094-1.463-21.6-12.1Zm14.034,7.193c.541,3.811,3.795,5.616,7.61,4.68s6.283-4.149,5.742-7.96l-1.437-10.138c-.539-3.811-3.734-5.7-7.548-4.768a7.272,7.272,0,0,0-5.8,8.05Zm27.706-50.555a7.294,7.294,0,0,1,5.441-8.032,5.737,5.737,0,0,1,7.277,4.909l2.815,19.845,3.461-.85a4.825,4.825,0,0,1,6.064,4.091,6.146,6.146,0,0,1-4.533,6.7l-3.463.85,3.5,24.661a7.241,7.241,0,0,1-5.439,8.035,5.7,5.7,0,0,1-7.278-4.911Z" transform="translate(-29.941 -799.277)" fill="#fff"/><path d="M247.18,1030.548a4.454,4.454,0,0,1-5.579-3.764l-7.352-51.842a5.671,5.671,0,0,1,4.172-6.157l29.11-7.151a4.758,4.758,0,0,1,5.983,4.039,6.053,6.053,0,0,1-4.474,6.6l-21.408,5.258,5.741,40.481c9.256-2.274,18.43-5.122,25.31-8.672a7.708,7.708,0,0,1,1.392-.492,4.757,4.757,0,0,1,5.983,4.036,6.085,6.085,0,0,1-3.293,6.167c-9.756,4.928-18.982,7.414-32.053,10.625Zm33.508-68.425a7.294,7.294,0,0,1,5.441-8.032A5.739,5.739,0,0,1,293.406,959l2.815,19.846,3.461-.851a4.825,4.825,0,0,1,6.064,4.091,6.143,6.143,0,0,1-4.534,6.694l-3.463.851,3.5,24.661a7.244,7.244,0,0,1-5.441,8.035,5.7,5.7,0,0,1-7.278-4.911Z" transform="translate(-7.791 -804.664)" fill="#fff"/></g><g transform="translate(200 96.458)"><path d="M113.429,641.885c24.655-6.055,42.01,5.528,44.3,21.636,1.666,11.75-3.33,21.038-10.48,26.483,9.143.079,18.5,6.387,20.37,19.589,3.089,21.784-15.059,39.631-39.065,45.528-17.259,4.24-32.581.351-40.978-10.564-3.623-4.711-2.63-10.966,1.24-14.925,4-3.989,11.081-6.139,15.463-1.749,5.182,5.286,12.808,8.878,22.41,6.52,12.069-2.965,19.049-10.556,17.832-19.137-1.441-10.166-12.976-11.022-24.654-8.154-5.971,1.467-10.61-.946-11.546-7.546s2.729-11.054,8.7-12.521c9.6-2.358,19.09-7.421,17.78-16.662-1.049-7.394-9.341-10-18.035-7.865A25.222,25.222,0,0,0,99.18,676.807a11.789,11.789,0,0,1-14.252,6.509c-5.621-1.764-8.374-7.917-5.971-13.7C83.949,657.46,96.172,646.123,113.429,641.885Z" transform="translate(-78.085 -499.035)" fill="#fff"/><path d="M241.724,668.941c5.168,36.438-11.431,61.42-38.293,68.017-26.992,6.63-49.19-8.821-54.357-45.259-5.15-36.307,11.338-61.124,38.33-67.755C214.265,617.348,236.574,632.634,241.724,668.941ZM200.473,716.1c15.052-3.7,21.374-18.775,18.153-41.483-3.2-22.576-13.342-33.476-28.264-29.812s-21.393,18.647-18.192,41.222C175.391,708.733,185.55,719.763,200.473,716.1Z" transform="translate(-50.982 -505.923)" fill="#fff"/><path d="M287.219,692.463c5.58-1.37,9.556,2.982,10.321,8.4.749,5.281-1.746,11.357-7.326,12.729L240.9,725.7c-5.58,1.37-9.553-2.98-10.321-8.394-.749-5.28,1.746-11.359,7.327-12.729l15.571-3.824-8.22-57.959-6.907,7.161a10.606,10.606,0,1,1-15.133-14.864l23.091-23.707c3.168-3.238,7.539-5.541,12.233-4.645,3.858.692,6.31,3.779,6.928,8.136l11.366,80.14Z" transform="translate(-23.121 -512.078)" fill="#fff"/><path d="M289.527,654.994c-5.58,1.369-10.091-2.987-10.858-8.4-.749-5.281,2.283-11.355,7.864-12.725L345.7,619.333c5.578-1.37,10.054,2.723,10.821,8.136.749,5.281-2.247,11.618-7.825,12.988Z" transform="translate(-0.52 -507.232)" fill="#fff"/><path d="M357.9,658.647a8.176,8.176,0,0,1-10.244-6.912l-7.1-50.036a13.074,13.074,0,0,1,9.771-14.422,10.288,10.288,0,0,1,13.068,8.812l1.18,8.317,23.747-5.833-1.18-8.317a13.073,13.073,0,0,1,9.772-14.422,10.286,10.286,0,0,1,13.066,8.812l2.172,15.314,21.152-5.2-2.508-17.69a13.391,13.391,0,0,1,9.993-14.751,10.537,10.537,0,0,1,13.364,9.015L464.192,642.1a13.3,13.3,0,0,1-9.994,14.751c-6.489,1.594-12.391-2.148-13.364-9.013l-4.942-34.855-21.152,5.2,2.34,16.5a10.416,10.416,0,0,1-7.661,11.31Zm-.976,18.683c-.936-6.6,3.693-11.836,10.181-13.43s12.241,1.09,13.177,7.692l2.022,14.259,78.637-19.316a8.234,8.234,0,0,1,10.394,7.012,10.472,10.472,0,0,1-7.771,11.471L372.6,707.364c-5.708,1.4-11.647-1.649-12.621-8.513Zm36.061-45.883-2.153-15.182L367.087,622.1l2.152,15.184Z" transform="translate(23.421 -529.325)" fill="#fff"/><path d="M445.147,671.127c6.184-19.826,1-58.31-.914-71.777l-1.574-11.09-.909.225c-5.839,1.434-9.181-2.254-9.95-7.668-.8-5.677,1.3-10.7,7.141-12.137l18.686-4.589c5.322-1.308,7.627,2.635,8.431,8.312.711,5.018-.136,9.462-4.324,11.173l1.573,11.091c2.1,14.787,9.011,53.117,14.877,58.507,4-7.813-.064-46.845-2.159-61.632l-1.574-11.09c-4.5.423-6.384-3.351-7.094-8.369-.8-5.675.264-10.448,5.584-11.754l18.686-4.591c5.84-1.434,9.183,2.254,9.987,7.93.768,5.413-1.34,10.439-7.179,11.873l-.908.225,1.574,11.09c1.908,13.467,7.617,51.822,18.82,67.378a10.427,10.427,0,0,1-5.894,16.2,8.266,8.266,0,0,1-8.868-2.878c-2.118-2.623-3.922-6.824-5.617-12.145-1.336,12.352-4.792,21.124-11.8,22.844s-12.765-4.788-17.4-15.672c-.122,5.767-.655,10.542-1.781,13.964a10.475,10.475,0,0,1-7.482,6.892,8.1,8.1,0,0,1-10.393-7.01A11.679,11.679,0,0,1,445.147,671.127Zm59.094-112.611a11.563,11.563,0,0,1,8.66-12.785,9.2,9.2,0,0,1,11.713,7.781l5.317,37.5,5.32-1.308-5.392-38.024A11.6,11.6,0,0,1,538.5,538.76c5.839-1.434,11.019,1.939,11.861,7.882l14.811,104.431a11.661,11.661,0,0,1-8.9,12.98c-5.71,1.4-10.739-1.871-11.6-7.944l-6.647-46.87-5.32,1.308,6.571,46.341a11.591,11.591,0,0,1-8.79,12.815c-5.71,1.4-10.739-1.87-11.581-7.811Z" transform="translate(58.709 -538.431)" fill="#fff"/><path d="M219.548,858.363c.936,6.6-3.6,12.5-10.087,14.09s-12.334-1.752-13.27-8.352l-2.1-14.787-78.379,19.252a8.235,8.235,0,0,1-10.394-7.012,10.475,10.475,0,0,1,7.774-11.471L148,841.509l-2.247-15.844-38.929,9.562a8.35,8.35,0,0,1-10.376-6.879,10.708,10.708,0,0,1,7.754-11.6l74.615-18.328c2.656-9.668,3.661-21.531,2.706-28.263l-77.21,18.965a8.166,8.166,0,0,1-10.394-7.009,10.474,10.474,0,0,1,7.772-11.473l91.613-22.5a8.177,8.177,0,0,1,10.245,6.908c2.211,15.579,1.3,27.142-.986,37.541l2.725-.668a8.358,8.358,0,0,1,10.542,7.111,10.581,10.581,0,0,1-7.921,11.373l-39.06,9.595,2.248,15.844,32.7-8.033c5.71-1.4,11.649,1.646,12.622,8.513Z" transform="translate(-93.824 -456.396)" fill="#fff"/><path d="M214.977,752.369l-.563-3.958c-.954-6.735,3.657-11.147,10.276-12.771s12.129.3,13.083,7.033l.562,3.958,19.593-4.813a8.178,8.178,0,0,1,10.247,6.911,10.415,10.415,0,0,1-7.661,11.309l-62.676,15.4a8.179,8.179,0,0,1-10.247-6.91,10.417,10.417,0,0,1,7.663-11.312Zm-.1,24.89,29.974-7.362c12.328-3.029,23.614,4.582,25.392,17.124,1.761,12.411-6.7,24.734-19.026,27.763l-29.974,7.363c-12.2,3-23.335-4.516-25.1-16.926C194.373,792.68,202.684,780.256,214.882,777.259Zm-17.47,81.347a10.924,10.924,0,0,1,8.366-12.029c6.878-1.689,14.273-3.5,21.893-5.65l-1.011-7.129c-.956-6.734,3.62-10.453,10.238-12.079s11.9-.329,12.86,6.4l.822,5.81c7.693-2.574,15.108-5.215,21.816-8.091a12.289,12.289,0,0,1,1.91-.742c5.451-1.338,10.312,1.7,11.1,7.247.731,5.15-2.028,9.377-7.216,11.608-19.237,8.277-47.1,16.352-69.677,21.9C203.061,867.192,198.2,864.151,197.412,858.606Zm26.9-55.521,19.076-4.684a5.4,5.4,0,0,0,4-5.9,4.244,4.244,0,0,0-5.347-3.607l-19.076,4.685a5.4,5.4,0,0,0-4,5.9A4.241,4.241,0,0,0,224.317,803.085Zm51.094-64.876a13.394,13.394,0,0,1,9.994-14.751,10.538,10.538,0,0,1,13.363,9.014L313.165,834a13.3,13.3,0,0,1-9.993,14.751c-6.488,1.594-12.389-2.148-13.363-9.015Z" transform="translate(-57.58 -465.979)" fill="#fff"/><path d="M283.961,756.355c-2.771-19.539,12.951-34.6,33.454-39.639s39.817,1.422,42.588,20.96l2.865,20.2c2.771,19.54-13.362,34.569-33.864,39.6S289.6,796.1,286.825,776.556Zm5.967,79.007a11.179,11.179,0,0,1,8.328-12.292c23.618-5.8,47.251-12.425,66.748-20.768a12.433,12.433,0,0,1,1.91-.742,8.791,8.791,0,0,1,11.136,7.512c.731,5.15-1.99,9.64-7.179,11.872-19.238,8.277-44.632,15.746-69.806,21.93A8.793,8.793,0,0,1,289.927,835.362Zm19.7-64.68c.992,7,7.948,9.66,16.643,7.524s14.712-7.986,13.721-14.983L337.2,743.551c-.993-7-8.248-9.861-16.943-7.725s-14.416,8.187-13.423,15.184Zm58.336-55.453a13.4,13.4,0,0,1,9.994-14.751,10.538,10.538,0,0,1,13.364,9.014l14.4,101.526a13.3,13.3,0,0,1-9.994,14.753c-6.488,1.594-12.389-2.148-13.363-9.015Z" transform="translate(-20.379 -474.871)" fill="#fff"/><path d="M394.013,700.139l37.373-9.18c11.418-2.8,21.962,4.307,23.608,15.923a23.911,23.911,0,0,1-17.654,26.062l-37.373,9.18c-11.419,2.8-21.962-4.308-23.609-15.926A23.909,23.909,0,0,1,394.013,700.139Zm17.719,74.752a71.361,71.361,0,0,0,.04-11.076l-24.526,6.025a8.351,8.351,0,0,1-10.376-6.88,10.709,10.709,0,0,1,7.754-11.6l71.63-17.6A8.36,8.36,0,0,1,466.8,740.87a10.585,10.585,0,0,1-7.922,11.376L435,758.109c.472,5.212.631,12.962-.641,19.151-1.05,4.9-5.089,8.625-10.279,9.9-6.229,1.531-11.442-1.151-12.341-7.488A20.6,20.6,0,0,1,411.732,774.891Zm-21.816,21.343c-.936-6.6,3.692-11.836,10.18-13.43s12.241,1.093,13.177,7.693l1.462,10.3,78.637-19.314a8.231,8.231,0,0,1,10.392,7.008,10.473,10.473,0,0,1-7.771,11.474l-90.965,22.343c-5.709,1.4-11.649-1.646-12.621-8.513Zm13.2-72.645,26.211-6.438a4.241,4.241,0,0,0,3.09-4.721,3.337,3.337,0,0,0-4.175-2.937l-26.213,6.439a4.242,4.242,0,0,0-3.091,4.721A3.339,3.339,0,0,0,403.114,723.589Zm50.115,34.279,18.685-4.589-8.686-61.26a13.393,13.393,0,0,1,9.994-14.751,10.536,10.536,0,0,1,13.362,9.013L497.706,764.7c.974,6.864-3.692,11.836-10.181,13.431-6.358,1.56-11.905-.63-13.1-7.166l-18.686,4.589a8.1,8.1,0,0,1-10.19-6.512A10.388,10.388,0,0,1,453.229,757.868Z" transform="translate(15.409 -483.851)" fill="#fff"/><path d="M489.761,779.658c-2.464.606-4.747-.336-5.159-3.24-.186-1.32.515-3,1.366-4.571,1.349-2.79,2.291-5.617,2.086-8.027-6.36.607-11.335-3.226-12.252-9.7-1.032-7.26,4.041-14.108,11.177-15.861s14.005,2.161,15.127,10.083c1.685,11.882-2.3,23.519-9.12,29.429A8.254,8.254,0,0,1,489.761,779.658Z" transform="translate(53.919 -460.272)" fill="#fff"/></g></g></svg>