<?xml version="1.0" encoding="utf-8"?>
<!-- Generator: Adobe Illustrator 24.0.0, SVG Export Plug-In . SVG Version: 6.00 Build 0)  -->
<svg version="1.1" id="레이어_1" xmlns="http://www.w3.org/2000/svg" xmlns:xlink="http://www.w3.org/1999/xlink" x="0px"
	 y="0px" viewBox="0 0 342 342" style="enable-background:new 0 0 342 342;" xml:space="preserve">
<style type="text/css">
	.st0{fill:#D1AC67;}
	.st1{fill:#700007;}
	.st2{fill:#FFFFFF;}
	.st3{fill:#139F67;}
	.st4{fill:#B9DA21;}
	.st5{fill:#0FBC2C;}
	.st6{fill:#84E113;}
	.st7{fill:#2CDB04;}
	.st8{fill:#391BCA;}
	.st9{fill:#0F859B;}
	.st10{fill:#2229E1;}
	.st11{fill:#076BD5;}
	.st12{fill:#0942F8;}
	.st13{fill:#DDD727;}
	.st14{fill:#F48A1C;}
	.st15{fill:#F6D82A;}
	.st16{fill:#FAAB1C;}
	.st17{fill:#FDC922;}
	.st18{fill:#A30C8F;}
	.st19{fill:#4A0FC0;}
	.st20{fill:#8F04A7;}
	.st21{fill:#5A07B9;}
	.st22{fill:#7603B6;}
	.st23{fill:#F2701F;}
	.st24{fill:#B61275;}
	.st25{fill:#F4521D;}
	.st26{fill:#CF1756;}
	.st27{fill:#EA262B;}
</style>
<path class="st0" d="M171,0.93C77.08,0.93,0.9,77.08,0.9,171.03c0,93.93,76.16,170.1,170.1,170.1s170.1-76.14,170.1-170.1
	C341.1,77.1,264.97,0.93,171,0.93"/>
<path class="st1" d="M171,7.5C80.73,7.5,7.5,80.68,7.5,171c0,90.28,73.19,163.5,163.5,163.5c90.36,0,163.6-73.18,163.6-163.5
	C334.6,80.71,261.32,7.5,171,7.5z M170.98,27.32c11,0.03,20.95,6.62,25.41,16.77c9.63-0.95,16.48,4.24,18.35,5.86
	c7.39,5.97,9,14.6,9.29,16.56c1.72,0.68,6.91,3.12,9.63,9.11c0.85,1.85,1.28,4.03,1.28,6.29v0.32c0.11-0.04,0.23-0.08,0.35-0.12
	c2.14-0.7,4.36-0.94,6.39-0.73c6.54,0.75,10.46,4.92,11.63,6.37c1.97-0.36,10.66-1.48,18.6,3.68c2.14,1.29,9.21,6.21,11.28,15.67
	c11.03,1.1,20.35,8.52,23.81,19l-0.02,0.05c3.35,10.47,0.17,21.96-8.1,29.34c3.88,8.87,1.07,16.99,0.1,19.28
	c-3.41,8.87-11.1,13.07-12.89,13.94c-0.11,1.86-0.82,7.55-5.68,11.98c-1.51,1.38-3.45,2.48-5.6,3.17c-0.09,0.02-0.2,0.06-0.3,0.09
	c0.08,0.09,0.16,0.19,0.22,0.28c1.34,1.84,2.27,3.86,2.68,5.86c1.32,6.44-1.44,11.47-2.46,13.02c0.93,1.77,4.7,9.68,2.24,18.83
	c-0.56,2.43-3.06,10.67-11.41,15.56c2.35,10.84-1.83,22-10.72,28.51c-8.93,6.43-20.85,6.96-30.42,1.38
	c-7.23,6.42-15.83,6.24-18.29,6.05c-9.5-0.51-15.87-6.51-17.25-7.95c-1.8,0.48-7.43,1.56-13.15-1.7c-1.78-1.02-3.42-2.52-4.74-4.35
	c-0.07-0.08-0.13-0.18-0.19-0.27c-0.06,0.1-0.14,0.21-0.2,0.31c-1.32,1.82-2.97,3.33-4.74,4.35c-5.72,3.24-11.36,2.17-13.15,1.69
	c-1.38,1.42-7.76,7.44-17.22,7.93c-2.48,0.23-11.08,0.39-18.32-6.04c-9.57,5.58-21.49,5.05-30.42-1.38
	c-8.88-6.51-13.07-17.67-10.72-28.51c-8.35-4.89-10.84-13.12-11.4-15.53c-2.46-9.18,1.3-17.09,2.23-18.85
	c-1-1.56-3.77-6.58-2.45-13.03c0.43-1.99,1.35-4.02,2.68-5.85c0.06-0.08,0.13-0.17,0.19-0.25c-0.11-0.04-0.23-0.08-0.34-0.11
	c-2.14-0.7-4.08-1.79-5.6-3.17c-4.86-4.44-5.57-10.13-5.68-11.99c-1.79-0.86-9.48-5.07-12.88-13.92
	c-0.97-2.29-3.79-10.42,0.09-19.29c-8.27-7.38-11.45-18.88-8.09-29.36c3.45-10.46,12.78-17.89,23.79-19.01
	c2.08-9.45,9.14-14.36,11.26-15.65c7.97-5.18,16.66-4.06,18.61-3.71c1.18-1.44,5.1-5.63,11.65-6.36c2.02-0.23,4.23,0.04,6.38,0.73
	l0.3,0.09c-0.02-0.1-0.02-0.23-0.02-0.35c0-2.25,0.46-4.44,1.29-6.29c2.72-5.99,7.91-8.43,9.64-9.11c0.29-1.97,1.9-10.59,9.27-16.55
	c1.87-1.64,8.75-6.82,18.38-5.87C150.01,33.95,159.97,27.36,170.98,27.32L170.98,27.32z"/>
<path class="st2" d="M171,107.4c-35.11,0-63.58,28.46-63.58,63.58c0,35.11,28.47,63.58,63.58,63.58c35.12,0,63.58-28.46,63.58-63.58
	S206.12,107.4,171,107.4z M190.315,139.521c1.655-0.042,3.316,0.328,3.999,1.343c0.68,1.012,1.094,4.499,0.466,5.616l-0.02,0.04
	v0.57c0,0,0.18,0.02,0.18,0.02c3.89,0.432,7.792-0.232,11.69-0.11c0.64,0.02,1.34,0.09,2.04,0.16c0.31,0.17,0.56,0.37,0.67,0.54
	l0.05,0.05c0.44,0.57,0.65,1.69,0.65,2.92c0,1.02-0.15,1.96-0.45,2.58c0,0-0.04,0.07-0.03,0.08c-0.11,0.28-0.27,0.49-0.41,0.62
	c-0.14,0.14-0.25,0.2-0.272,0.207c-1.671,0.501-3.837,0.169-5.578,0.203c0,0-1.52,0.03-1.52,0.03s0.44,0.3,0.443,0.301
	c4.286,2.314,4.24,8.804,3.351,12.902c-1.19,5.49-5.595,9.014-10.854,10.416c0,0-0.15,0.04-0.15,0.04l-0.04,1.61l0.17,3.13v1.69
	l0.81,0.07l0.03-0.01c0.17-0.04,0.37-0.06,0.59-0.06c0.37,0,0.7,0.07,0.89,0.16l0.04,0.01h0.04h0.06h0.06
	c0.04,0.01,0.13,0.04,0.26,0.05c0,0,0.149,0,0.15,0c3.991,0,7.999-0.18,11.97-0.18c0,0,4.71-0.19,4.71-0.19s0.01-4.234,0.01-4.24
	c0.03-12.741,0.03-25.479,0.03-38.22c0-0.14,0.03-0.98,0.81-1.46c0.72-0.45,2.11-0.66,3.62-0.66s2.91,0.21,3.62,0.66
	c0.77,0.48,0.81,1.33,0.81,1.46v2.38c0,0,0.069,0.872,0.07,0.88c0.274,3.442-0.207,7.14-0.268,10.601
	c-0.135,7.579-0.21,15.149-0.192,22.729c0.09,0.9,0.11,1.8,0.11,2.7c0,5.983-0.449,12.189,0.21,18.12c0,0,0.04,1.13,0.04,1.13
	l0.03,0.18c0,0,0,0.69,0,0.71c0,0.13-0.04,0.98-0.81,1.46c-0.72,0.45-2.11,0.66-3.62,0.66s-2.91-0.21-3.62-0.66
	c-0.77-0.48-0.81-1.33-0.81-1.47v-9.38h-0.2c0,0-0.268,0-0.27,0c-7.991,0-15.982-0.051-23.972-0.089
	c-4-0.019-7.999-0.036-11.999-0.041c-1.775-0.003-6.671,0.96-7.999-0.759c-0.44-0.57-0.65-1.7-0.65-2.92s0.21-2.35,0.65-2.92
	c0.13-0.18,0.3-0.31,0.519-0.44c1.635-0.966,3.998-0.39,5.869-0.314c2.996,0,6.009,0.254,8.992,0.254c0.17,0,0.34,0.01,0.51,0.02
	l0.2,0.01l0.02-0.49l-0.14-1.84v-4.34c0,0-0.15-0.04-0.15-0.04c-5.314-1.388-9.608-4.592-10.91-10.235
	c-1.109-4.806,0.614-9.676,3.98-13.155c0,0,0.3-0.31,0.3-0.31c-2.171-0.152-6.85,1.001-8.556-0.62
	c-1.264-1.201-1.184-4.591-0.138-5.947c0.919-1.176,3.57-0.622,4.857-0.637c3.549-0.04,7.089-0.026,10.637-0.026c0,0,0-5.21,0-5.23
	c0-0.13,0.03-0.979,0.809-1.46C187.503,139.891,188.907,139.557,190.315,139.521z M134.861,141.912
	c1.973-0.052,3.939-0.116,5.875-0.125c6.105-0.028,12.23-0.037,18.313-0.037c1.09,0,2.09,0.39,2.87,1.03
	c0.1,0.09,0.19,0.17,0.28,0.26c0.08,0.06,0.13,0.1,0.17,0.15l0.01,0.04l0.03,0.03c0.13,0.14,0.24,0.27,0.34,0.42
	c0,0,0.018,0.027,0.037,0.047c1.075,1.132,1.267,2.835,1.099,4.311c-0.248,2.186-0.294,4.397-0.251,6.594
	c0.021,1.051,0.21,2.029,0.338,3.011c0.05,0.381,0.052,0.757-0.124,1.112c-0.179,0.362-0.705,0.518-0.849,0.806
	c0,0,0.03-0.09,0.03-0.09l-0.21,0.14c-0.02,0.01-0.03,0.02-0.03,0.02c-0.72,0.44-2.11,0.65-3.61,0.65s-2.88-0.2-3.6-0.65
	c-0.24-0.1-0.45-0.22-0.52-0.32c-0.07-0.09-0.19-0.34-0.287-0.507c-2.404-2.832,2.654-9.709-3.153-9.741
	c-3.201-0.018-6.401-0.011-9.602-0.017c-6.756,0-13.667,0.377-20.398-0.155c-0.03,0-0.05-0.01-0.1-0.01l-0.05-0.01
	c-0.33-0.04-0.87-0.18-1.22-0.64c-0.44-0.57-0.65-1.7-0.65-2.92s0.21-2.35,0.65-2.92c0.46-0.62,1.33-0.66,1.47-0.66
	c0,0,2.53,0,2.55,0.01l0.03,0.01c0,0,0.58,0.01,0.58,0.01C128.15,142.057,131.515,142.001,134.861,141.912z M190.839,156.165
	c-3.921,0.003-7.829,3.177-7.829,7.705c0,0.13-0.02,0.2-0.02,0.331c-0.279,3.15,2.67,6.022,5.616,6.491
	c3.319,0.528,6.972-1.013,8.525-4.012c1.286-2.483,0.96-5.534-0.75-7.743C194.885,157.005,192.86,156.163,190.839,156.165z
	 M117.218,164.591c0.967,0.001,1.935-0.011,2.842-0.011c10.175,0.237,20.402,0.05,30.58,0.05c5.736,0,11.417-0.356,17.14,0.01h0.09
	c0.05,0,0.13,0.01,0.23,0.02l0.04,0.04c0.33,0.05,0.87,0.19,1.21,0.64c0.45,0.57,0.66,1.69,0.65,2.92c0,0.33-0.02,0.66-0.05,0.97
	c-0.01,0.09-0.02,0.17-0.03,0.25v0.05c0,0.11,0.01,0.21,0.01,0.28c0,0.1-0.01,0.16-0.04,0.2c-0.38,0.54-0.37,0.73-0.83,1.37
	c-0.08,0.17-0.52,0.12-0.93,0.37c-0.15,0.09-0.45,0.14-0.76,0.13c-0.27,0-0.55-0.03-0.78-0.06c-0.35-0.05-0.679-0.07-0.999-0.07
	c-6.717-0.001-13.434,0.09-20.151,0.09c0,0-0.05,0.12-0.05,0.12c-0.17,0.36-0.21,0.79-0.21,1.23c0,1.925-0.506,4.699,0.28,6.51
	c0,0,0.05,0.12,0.05,0.12c2.912,0,5.823-0.058,8.735-0.05c1.987,0.005,4.447-0.33,6.345,0.33c0.23,0.08,0.44,0.17,0.63,0.28
	c0.57,0.23,0.79,0.26,0.87,0.31c0.07,0.03,0.16,0.14,0.5,0.58c0.7,0.88,1.11,1.74,1.11,2.5c0,0.27-0.05,0.52-0.15,0.77l-0.01,0.04
	v0.04c-0.04,0.23-0.05,0.49-0.05,0.75c0,5.744-0.994,11.369,0.21,17.09c0.04,0.19,0.06,0.369,0.06,0.53
	c0,2.893-6.632,2.422-8.24,1.45c-0.479-0.29-0.67-0.699-0.75-1.029c-0.399-1.64,0.026-3.812,0.03-5.536
	c0-2.918-0.001-5.837,0.029-8.755v-0.14c0-0.36,0.01-0.71,0.01-1.02v-0.25c0,0-0.129,0.03-0.13,0.03
	c-0.194,0.045-1.961-0.687-2.479-0.723c-1.39-0.096-2.82-0.002-4.214-0.003c-2.916-0.002-5.831-0.004-8.747-0.006
	c-6.023-0.004-12.573,0.669-18.501-0.028h-0.11c-0.12,0.02-0.19,0.03-0.24,0.03c-0.03,0-0.06,0-0.1-0.02l-0.03-0.01h-0.26
	c-0.13,0-0.99-0.04-1.46-0.66c-0.03-0.02-0.06-0.07-0.09-0.13c-0.38-0.6-0.56-1.65-0.56-2.79c0-1.22,0.21-2.35,0.65-2.92
	c0.12-0.17,0.27-0.29,0.43-0.38c0.34-0.26,0.73-0.38,1.23-0.38c0.11,0,0.21,0.01,0.32,0.02h0.04c0,0,0.048-0.01,0.05-0.01
	c2.536-0.507,5.304-0.453,7.868-0.172c2.409,0.264,4.765,0.161,7.231,0.034c0.087-2.506,0.111-5.009,0.111-7.517
	c0-0.014,0-0.055,0-0.055v-0.2h-12.04c0,0-0.05-0.05-0.05-0.05c-3.25,0.025-6.518,0.13-9.76,0.13c-0.19,0-0.35-0.03-0.44-0.07
	l-0.04-0.02h-0.27c-0.13,0-1-0.04-1.47-0.66c-0.44-0.57-0.65-1.7-0.65-2.92s0.21-2.35,0.65-2.92c0.3-0.4,0.75-0.56,1.08-0.62h0.03
	l0.03-0.02c0.1-0.05,0.22-0.11,0.47-0.14l0.06-0.01l0.04-0.04c0-0.01,0.039-0.03,0.137-0.02
	C114.735,164.565,115.976,164.59,117.218,164.591z"/>
<path class="st3" d="M173.9,242.7c4.69-0.2,9.38-0.85,13.99-1.97c1.55,17.47,3.06,34.13,3.21,35.87c-0.11,0.08-0.19,0.14-0.19,0.14
	c-4.26,3.09-12.02,2.06-15.1-2.19c-1.15-1.58-1.77-3.5-1.83-5.72L173.9,242.7z"/>
<path class="st4" d="M238.2,195.9c-1.63,4.39-3.7,8.66-6.19,12.7c16.14,6.87,31.52,13.44,33.12,14.13c0.12-0.08,0.2-0.15,0.2-0.15
	c4.25-3.07,5.68-10.78,2.58-15.03c-1.15-1.57-2.79-2.75-4.88-3.5L238.2,195.9z"/>
<path class="st5" d="M197.6,281.1c2.22,2.76,5.3,4.58,8.78,5.16c4.17,0.69,8.46-0.39,12.1-3.03c1.44-1.05,2.66-2.33,3.67-3.79
	c-2.97-6.47-12.42-27.06-20.09-43.78c-2.69,1.29-5.43,2.42-8.21,3.37C195.34,255.77,197.07,275.19,197.6,281.1"/>
<path class="st6" d="M258.3,253.2c1.7-0.52,3.3-1.27,4.73-2.32c3.64-2.65,6-6.41,6.62-10.57c0.53-3.49-0.25-6.98-2.19-9.95
	c-5.47-2.33-23.4-9.97-38.88-16.57c-1.75,2.36-3.67,4.61-5.73,6.76c13.53,12.47,30.2,27.81,35.44,32.65"/>
<path class="st7" d="M207.4,232.8c9.19,20.01,19.61,42.75,21.48,46.8c5.25,5.34,14.88,5.97,21.81,1.05
	c6.68-4.97,9.12-14.25,5.75-20.94c-3.48-3.22-21.81-20.1-37.95-34.96c-1.7,1.49-3.47,2.93-5.34,4.28c-1.88,1.36-3.8,2.61-5.76,3.77"
	/>
<path class="st8" d="M103.69,195.9c1.63,4.4,3.7,8.66,6.2,12.71c-16.14,6.88-31.52,13.45-33.11,14.14
	c-0.13-0.08-0.22-0.15-0.22-0.15c-4.24-3.08-5.66-10.78-2.57-15.03c1.16-1.58,2.79-2.77,4.88-3.5L103.69,195.9z"/>
<path class="st9" d="M167.99,242.7c-4.68-0.19-9.37-0.84-13.99-1.97c-1.56,17.48-3.06,34.13-3.21,35.85c0.11,0.1,0.2,0.16,0.2,0.16
	c4.24,3.09,12.01,2.05,15.09-2.19c1.16-1.57,1.77-3.5,1.83-5.72L167.99,242.7z"/>
<path class="st10" d="M74.49,230.4c-1.93,2.97-2.72,6.45-2.19,9.94c0.65,4.17,3,7.93,6.63,10.58c1.44,1.04,3.04,1.8,4.73,2.32
	c5.25-4.84,21.9-20.18,35.44-32.64c-2.06-2.15-3.99-4.41-5.74-6.76C97.89,220.43,79.96,228.07,74.49,230.4"/>
<path class="st11" d="M119.79,279.5c1.01,1.46,2.23,2.74,3.67,3.79c3.64,2.63,7.94,3.72,12.1,3.03c3.48-0.57,6.55-2.4,8.78-5.14
	c0.52-5.93,2.25-25.35,3.75-42.1c-2.8-0.94-5.52-2.07-8.2-3.37c-7.69,16.73-17.13,37.33-20.1,43.8"/>
<path class="st12" d="M123.39,224.7c-16.19,14.93-34.6,31.88-37.88,34.89c-3.45,6.65-1.06,16,5.75,21.06c6.8,4.83,16.36,4.28,21.7-1
	c1.98-4.3,12.37-26.96,21.51-46.89c-1.95-1.15-3.86-2.4-5.73-3.75c-1.87-1.37-3.66-2.81-5.36-4.32"/>
<path class="st13" d="M239.98,190.4c1.28-4.52,2.11-9.18,2.47-13.91c17.1,3.91,33.4,7.63,35.1,8.03c0.05,0.13,0.07,0.23,0.07,0.23
	c1.62,4.99-1.76,12.06-6.75,13.68c-1.86,0.6-3.88,0.6-6-0.04L239.98,190.4z"/>
<path class="st14" d="M215.48,114.7c3.69,2.91,7.09,6.18,10.18,9.81c11.52-13.23,22.52-25.81,23.66-27.13
	c-0.03-0.13-0.06-0.24-0.06-0.24c-1.63-4.99-8.52-8.72-13.5-7.1c-1.87,0.6-3.5,1.81-4.85,3.57L215.48,114.7z"/>
<path class="st15" d="M283.88,179.7c3.31-1.26,5.98-3.62,7.61-6.76c1.94-3.75,2.25-8.16,0.86-12.44c-0.56-1.7-1.4-3.24-2.46-4.66
	c-7.08,0.82-29.59,3.46-47.86,5.57c0.4,2.96,0.64,5.92,0.67,8.85C259.08,174.02,278.08,178.38,283.88,179.7"/>
<path class="st16" d="M276.08,113.4c0.03-1.77-0.19-3.53-0.75-5.23c-1.39-4.27-4.24-7.67-8.01-9.56c-3.16-1.59-6.71-1.92-10.12-1
	c-3.92,4.49-16.73,19.18-27.78,31.85c1.71,2.39,3.25,4.92,4.66,7.55c16.04-9.02,35.79-20.12,42.01-23.62"/>
<path class="st17" d="M240.98,155.5c21.87-2.55,46.73-5.44,51.15-5.97c6.7-3.33,10.27-12.3,7.72-20.41
	c-2.66-7.89-10.72-13.07-18.15-11.95c-4.12,2.32-25.84,14.54-44.96,25.29c0.9,2.08,1.72,4.21,2.43,6.41c0.72,2.2,1.3,4.41,1.8,6.63"
	/>
<path class="st18" d="M126.47,114.7c-3.69,2.89-7.09,6.17-10.17,9.8c-11.53-13.23-22.53-25.81-23.67-27.12
	c0.04-0.14,0.07-0.24,0.07-0.24c1.63-5,8.52-8.72,13.5-7.1c1.87,0.6,3.5,1.8,4.84,3.56L126.47,114.7z"/>
<path class="st19" d="M101.87,190.4c-1.26-4.51-2.1-9.17-2.46-13.92c-17.1,3.93-33.4,7.64-35.09,8.04
	c-0.05,0.13-0.09,0.23-0.09,0.23c-1.62,5,1.76,12.06,6.75,13.69c1.87,0.6,3.88,0.59,6.01-0.04L101.87,190.4z"/>
<path class="st20" d="M84.68,97.6c-3.41-0.93-6.97-0.59-10.13,0.97c-3.77,1.92-6.62,5.3-8,9.57c-0.55,1.7-0.78,3.46-0.75,5.23
	c6.21,3.49,25.97,14.6,42,23.62c1.41-2.63,2.96-5.16,4.66-7.55c-11.05-12.67-23.86-27.35-27.77-31.84"/>
<path class="st21" d="M52.01,155.9c-1.07,1.42-1.91,2.97-2.46,4.65c-1.39,4.27-1.08,8.7,0.86,12.45c1.63,3.14,4.31,5.5,7.61,6.75
	c5.81-1.32,24.81-5.67,41.19-9.44c0.03-2.94,0.26-5.88,0.67-8.83c-18.28-2.14-40.79-4.76-47.87-5.59"/>
<path class="st22" d="M105.17,142.4c-19.19-10.79-41-23.06-44.89-25.24c-7.38-1.24-15.53,3.92-18.25,11.98
	c-2.49,7.95,0.99,16.87,7.66,20.32c4.7,0.55,29.46,3.43,51.25,5.96c0.49-2.2,1.08-4.4,1.79-6.6
	C103.45,146.63,104.27,144.48,105.17,142.4"/>
<path class="st23" d="M210.77,111.3c-3.9-2.61-8.08-4.84-12.47-6.64c9.01-15.05,17.58-29.4,18.48-30.9c0.15,0,0.25-0.01,0.25-0.01
	c5.26,0,10.92,5.4,10.92,10.65c0,1.96-0.63,3.88-1.88,5.71L210.77,111.3z"/>
<path class="st24" d="M131.17,111.3c3.91-2.61,8.08-4.84,12.47-6.64c-9.01-15.05-17.59-29.4-18.48-30.9c-0.14,0-0.24-0.01-0.24-0.01
	c-5.25,0-10.92,5.4-10.92,10.65c0,1.96,0.63,3.88,1.89,5.71L131.17,111.3z"/>
<path class="st25" d="M214.17,66.28c-0.18-3.53-1.59-6.82-4.07-9.33c-2.97-2.99-7.09-4.66-11.58-4.66c-1.79,0-3.52,0.33-5.19,0.9
	c-1.4,6.99-5.86,29.2-9.49,47.24c2.94,0.53,5.82,1.22,8.62,2.09c8.63-14.42,18.65-31.14,21.7-36.24"/>
<path class="st26" d="M148.57,53.2c-1.67-0.57-3.41-0.9-5.19-0.9c-4.5,0-8.61,1.67-11.57,4.66c-2.48,2.51-3.9,5.8-4.08,9.33
	c3.07,5.11,13.08,21.83,21.71,36.25c2.81-0.87,5.69-1.56,8.61-2.09C154.43,82.4,149.97,60.19,148.57,53.2"/>
<path class="st27" d="M177.87,99.6c4.33-21.59,9.25-46.12,10.13-50.49c-1.12-7.41-8.54-13.57-17.02-13.66
	c-8.34,0.09-15.76,6.16-16.97,13.57c0.93,4.64,5.84,29.08,10.16,50.58c2.25-0.22,4.53-0.33,6.83-0.33
	C173.32,99.27,175.61,99.39,177.87,99.6"/>
</svg>
