<svg xmlns="http://www.w3.org/2000/svg" width="19.309" height="25.68" viewBox="0 0 19.309 25.68"><path d="M-20.04-17.97a2.382,2.382,0,0,0,.9,3.33,2.511,2.511,0,0,0,3.39-.66,5.059,5.059,0,0,1,4.38-2.19c2.01,0,3.78,1.02,3.78,2.7,0,2.1-2.28,2.7-4.5,2.7a2.128,2.128,0,0,0-2.34,2.28,2.128,2.128,0,0,0,2.34,2.28c2.7,0,5.25.81,5.25,3.12,0,1.95-1.8,3.24-4.59,3.24a5.729,5.729,0,0,1-4.8-2.64,2.585,2.585,0,0,0-3.51-.45,2.409,2.409,0,0,0-.75,3.21c1.53,2.85,4.83,4.53,8.82,4.53C-6.12,3.48-1.5.54-1.5-4.41a5.327,5.327,0,0,0-3.93-5.4,5.5,5.5,0,0,0,3.18-5.25c0-3.66-3.51-7.14-9.21-7.14A9.916,9.916,0,0,0-20.04-17.97Z" transform="translate(20.809 22.2)" fill="#fff"/></svg>