<svg xmlns="http://www.w3.org/2000/svg" width="19.38" height="25.68" viewBox="0 0 19.38 25.68"><path d="M-20.88-13.32c0,4.86,3.3,8.37,8.73,8.37A7.3,7.3,0,0,0-6.93-6.99C-7.29-3.81-9.27-1.2-12.06-1.2a8.094,8.094,0,0,1-4.23-1.29,2.111,2.111,0,0,0-2.91.6,2.126,2.126,0,0,0,.12,3c1.74,1.68,4.17,2.37,7.02,2.37C-5.67,3.48-1.5-1.62-1.5-9.54c0-7.35-3.48-12.66-9.93-12.66C-17.34-22.2-20.88-18.6-20.88-13.32Zm5.31-.06c0-2.4,1.32-4.14,4.05-4.14,2.46,0,4.41,2.46,4.5,5.22a5.119,5.119,0,0,1-4.71,2.61A3.616,3.616,0,0,1-15.57-13.38Z" transform="translate(20.88 22.2)" fill="#fff"/></svg>