<svg xmlns="http://www.w3.org/2000/svg" width="19.38" height="25.68" viewBox="0 0 19.38 25.68"><path d="M-1.5-5.4c0-4.86-3.3-8.37-8.73-8.37a7.3,7.3,0,0,0-5.22,2.04c.36-3.18,2.34-5.79,5.13-5.79a8.093,8.093,0,0,1,4.23,1.29,2.111,2.111,0,0,0,2.91-.6,2.126,2.126,0,0,0-.12-3c-1.74-1.68-4.17-2.37-7.02-2.37-6.39,0-10.56,5.1-10.56,13.02,0,7.35,3.48,12.66,9.93,12.66C-5.04,3.48-1.5-.12-1.5-5.4Zm-5.31.06c0,2.4-1.32,4.14-4.05,4.14-2.46,0-4.41-2.46-4.5-5.22a5.119,5.119,0,0,1,4.71-2.61A3.616,3.616,0,0,1-6.81-5.34Z" transform="translate(20.88 22.2)" fill="#fff"/></svg>