<svg xmlns="http://www.w3.org/2000/svg" width="39" height="25.697" viewBox="0 0 39 25.697"><path d="M-29.16-1.62V-19.83a2.215,2.215,0,0,0-1.29-2.16,2.972,2.972,0,0,0-2.88.36l-5.91,3.96a2.32,2.32,0,0,0-.39,3.39,2.49,2.49,0,0,0,3.3.69l1.77-1.2V-1.62h-3.6A2.209,2.209,0,0,0-40.2.78a2.191,2.191,0,0,0,2.04,2.4h11.4A2.209,2.209,0,0,0-24.72.78a2.191,2.191,0,0,0-2.04-2.4ZM-11.91-22.2c-6.24,0-10.71,4.56-10.71,12.81,0,8.28,4.47,12.87,10.71,12.87C-5.7,3.48-1.2-1.11-1.2-9.39-1.2-17.64-5.7-22.2-11.91-22.2ZM-17.28-9.39c0-5.13,1.92-8.07,5.37-8.07s5.37,2.94,5.37,8.07c0,5.16-1.89,8.13-5.37,8.13C-15.36-1.26-17.28-4.23-17.28-9.39Z" transform="translate(40.2 22.217)" fill="#fff"/></svg>