<svg xmlns="http://www.w3.org/2000/svg" width="37.68" height="25.397" viewBox="0 0 37.68 25.397"><path d="M-28.14-1.62V-19.83a2.215,2.215,0,0,0-1.29-2.16,2.972,2.972,0,0,0-2.88.36l-5.91,3.96a2.32,2.32,0,0,0-.39,3.39,2.49,2.49,0,0,0,3.3.69l1.77-1.2V-1.62h-3.6A2.209,2.209,0,0,0-39.18.78a2.191,2.191,0,0,0,2.04,2.4h11.4A2.209,2.209,0,0,0-23.7.78a2.191,2.191,0,0,0-2.04-2.4Zm24.48,4.8A2.3,2.3,0,0,0-1.5.78a2.284,2.284,0,0,0-2.16-2.4H-15.6c.15-2.01,3.42-3.81,6.24-5.1,4.59-2.1,7.2-3.33,7.2-7.95,0-4.38-4.26-7.53-9.48-7.53-4.32,0-8.07,2.4-9.21,6.36a2.3,2.3,0,0,0,1.92,2.97,2.671,2.671,0,0,0,3.06-1.68,4.319,4.319,0,0,1,4.29-2.82c2.85,0,4.08,1.41,4.08,2.76,0,1.83-.99,2.46-4.17,3.93C-16.2-8.58-21.3-6.66-21.3-.18c0,2.22,1.14,3.36,3.39,3.36Z" transform="translate(39.18 22.217)" fill="#fff"/></svg>