<svg xmlns="http://www.w3.org/2000/svg" width="19.86" height="25.68" viewBox="0 0 19.86 25.68"><path d="M-1.5-4.5a6.44,6.44,0,0,0-3.78-5.85,5.58,5.58,0,0,0,2.94-4.74c0-4.2-3.69-7.11-9.09-7.11s-9.06,2.91-9.06,7.11a5.488,5.488,0,0,0,2.88,4.74A6.567,6.567,0,0,0-21.36-4.5c0,4.8,3.93,7.98,9.93,7.98S-1.5.3-1.5-4.5ZM-7.5-15c0,1.5-1.47,2.58-3.93,2.58s-3.9-1.08-3.9-2.58,1.44-2.58,3.9-2.58S-7.5-16.5-7.5-15Zm.78,10.41c0,2.01-1.71,3.45-4.71,3.45s-4.71-1.44-4.71-3.45,1.71-3.42,4.71-3.42S-6.72-6.6-6.72-4.59Z" transform="translate(21.36 22.2)" fill="#fff"/></svg>