<svg xmlns="http://www.w3.org/2000/svg" width="19.107" height="25.14" viewBox="0 0 19.107 25.14"><path d="M-14.43-17.16h9.84a2.276,2.276,0,0,0,2.16-2.37A2.257,2.257,0,0,0-4.59-21.9H-16.05a3.192,3.192,0,0,0-3.3,3l-.9,9a2.418,2.418,0,0,0,2.43,2.73,4.565,4.565,0,0,0,2.34-.75,7.192,7.192,0,0,1,4.56-1.41A3.789,3.789,0,0,1-6.84-5.4a4.141,4.141,0,0,1-4.47,4.02c-2.43,0-3.81-1.23-5.1-2.49a2.392,2.392,0,0,0-3.33-.06,2.321,2.321,0,0,0-.39,3.21c1.95,2.64,4.98,3.93,8.82,3.96C-5.52,3.27-1.5-.45-1.5-5.52c0-5.1-3.93-8.43-9.12-8.43a7.449,7.449,0,0,0-4.29,1.17Z" transform="translate(20.607 21.9)" fill="#fff"/></svg>